<svg xmlns="http://www.w3.org/2000/svg" width="66" height="66"><g id="Group_5511" data-name="Group 5511" transform="translate(-571 -4720)"><path id="Path_6105" data-name="Path 6105" d="M33 0A33 33 0 110 33 33 33 0 0133 0z" transform="translate(571 4720)" fill="#E2BB7B"/><path id="Path_6113" data-name="Path 6113" d="M1.05 5.4A60.332 60.332 0 013.459-9.229 61.869 61.869 0 019.04-22.8h10.223a86.132 86.132 0 00-3.7 13.747A79.109 79.109 0 0014.21 5.4zm21.738 0A60.332 60.332 0 0125.2-9.229 61.869 61.869 0 0130.778-22.8H41a86.133 86.133 0 00-3.7 13.748A79.109 79.109 0 0035.948 5.4z" transform="translate(583 4761.523)" fill="#fff"/></g></svg>