<svg xmlns="http://www.w3.org/2000/svg" width="650" height="372"><defs><clipPath id="clip-path"><rect id="Rectangle_1840" width="650" height="372" fill="#c76132" rx="4" transform="translate(5435 2818)"/></clipPath><clipPath id="clip-path-2"><path id="Rectangle_1831" d="M0 0h595.043v735.272H0z" class="cls-2"/></clipPath><clipPath id="clip-path-5"><path id="Path_8440" d="M0 0h595.043v735.272H0z" class="cls-2"/></clipPath><clipPath id="clip-path-11"><path id="Rectangle_1839" d="M0 0h595.043v735.272H0z" class="cls-3"/></clipPath><style>.cls-2,.cls-5,.cls-7{fill:none}.cls-10,.cls-2,.cls-3,.cls-5,.cls-7{stroke:#fff;stroke-width:1.5px}.cls-10,.cls-3{fill:#fff}.cls-10,.cls-5,.cls-7{stroke-miterlimit:10}.cls-6{clip-path:url(#clip-path-2)}.cls-7{stroke-linecap:round;stroke-linejoin:round}</style></defs><g id="Mask_Group_5321" clip-path="url(#clip-path)" opacity=".4" transform="translate(-5435 -2818)"><g id="Group_5503" transform="translate(5800 2658.672)"><path id="Path_8424" d="M515.585 344.018l28.269 48.963-28.269 48.96h-56.538l-28.27-48.96 28.27-48.963z" class="cls-5" transform="translate(-62.392 -49.825)"/><path id="Path_8425" d="M317.244 687.541l28.269 48.959-28.269 48.96h-56.538l-28.27-48.96 28.27-48.963z" class="cls-5" transform="translate(-33.665 -99.581)"/><path id="Path_8426" d="M317.244 573.034L345.513 622l-28.269 48.96h-56.538L232.436 622l28.27-48.963z" class="cls-5" transform="translate(-33.665 -82.995)"/><path id="Path_8427" d="M317.244 344.018l28.269 48.963-28.269 48.96h-56.538l-28.27-48.96 28.27-48.963z" class="cls-5" transform="translate(-33.665 -49.825)"/><path id="Path_8428" d="M317.244 229.51l28.269 48.963-28.269 48.96h-56.538l-28.27-48.96 28.27-48.963z" class="cls-5" transform="translate(-33.665 -33.24)"/><path id="Path_8429" d="M218.075 172.258l28.269 48.963-28.269 48.96h-56.537l-28.27-48.96 28.27-48.963z" class="cls-5" transform="translate(-19.302 -24.948)"/><g id="Group_5485" transform="translate(0 .001)"><g id="Group_5484" class="cls-6"><path id="Path_8430" d="M57.641 221.253l-.018.026-.119.214-1.471 2.54-26.561 46-.1.18h-.017l.111-.2L1.44 221.492l-.137-.239 28.169-48.787 26.561 46 1.59 2.762h.009z" class="cls-5" transform="translate(-.189 -24.979)"/><path id="Path_8431" d="M114.381 221.223l-.111.2-28.161 48.758H29.574l-.1-.18-.009-.017-28.026-48.522-.137-.239 28.169-48.787.1-.18h56.538l.009.008 28.152 48.761z" class="cls-5" transform="translate(-.189 -24.949)"/></g></g><g id="Group_5489" transform="translate(0 .001)"><g id="Group_5488" class="cls-6"><path id="Path_8432" d="M57.579 450.223l-28.152 48.761-28.161-48.761h-.213l28.255-48.949-.009-.017h.009l.009.017.111.18z" class="cls-5" transform="translate(-.152 -58.117)"/><path id="Path_8433" d="M114.381 450.223l-28.272 48.958H29.574l-.111-.2L1.3 450.223l28.161-48.77.1-.18.009-.017h56.539z" class="cls-5" transform="translate(-.189 -58.117)"/><path id="Path_8434" d="M57.537 327.721H1l28.272-49.206.111-.2L1.361 229.8h56.176l1.505 2.608 26.621 46.11z" class="cls-7" transform="translate(-.111 -33.284)"/><g id="Group_5487"><g id="Group_5486" class="cls-6"><path id="Path_8435" d="M114.121 335.724v.009l-1.608 2.788-26.655 46.153-.009.017H29.314l-.009-.017-16.17-28.007L1.18 335.972l-.137-.239 28.272-48.967h56.534l26.655 46.17 1.608 2.788z" class="cls-7" transform="translate(-.151 -41.534)"/></g></g></g></g><path id="Path_8436" d="M152.026 401.258l28.274 48.963-28.269 48.96H95.488l-28.269-48.96 28.269-48.963z" class="cls-5" transform="translate(-9.736 -58.116)"/><g id="Group_5490" transform="translate(0 .001)"><g id="Mask_Group_5320" clip-path="url(#clip-path-5)"><path id="Path_8437" d="M114.1 564.742L85.838 613.7H29.294L1.023 564.742l.017-.025 28.255-48.942h56.543z" class="cls-5" transform="translate(-.148 -74.703)"/><path id="Path_8438" d="M29.3 515.776h56.541l-26.6 46.076-1.659 2.873H1.043v-.009z" class="cls-5" transform="translate(-.151 -74.703)"/><path id="Path_8439" d="M29.463 507.277L1.3 458.515h56.315l28.272 48.958H29.574z" class="cls-5" transform="translate(-.189 -66.41)"/></g></g><path id="Path_8441" d="M218.075 57.75l28.269 48.963-28.269 48.96h-56.537l-28.27-48.96 28.27-48.963z" class="cls-5" transform="translate(-19.302 -8.363)"/><path id="Path_8442" d="M416.406 515.78l28.269 48.963-28.269 48.957h-56.538l-28.27-48.96 28.27-48.963z" class="cls-5" transform="translate(-48.028 -74.703)"/><path id="Path_8443" d="M218.123 515.78l28.269 48.963-28.269 48.957h-56.537l-28.27-48.96 28.27-48.963z" class="cls-5" transform="translate(-19.309 -74.703)"/><path id="Path_8444" d="M416.406 401.272l28.269 48.963-28.269 48.96h-56.538l-28.27-48.96 28.27-48.963z" class="cls-5" transform="translate(-48.028 -58.118)"/><path id="Path_8445" d="M515.585 573.034L543.854 622l-28.269 48.96h-56.538L430.777 622l28.27-48.963z" class="cls-5" transform="translate(-62.392 -82.995)"/><path id="Path_8446" d="M515.585 229.51l28.269 48.963-28.269 48.96h-56.538l-28.27-48.96 28.27-48.963z" class="cls-5" transform="translate(-62.392 -33.24)"/><path id="Path_8447" d="M515.585 687.541l28.269 48.959-28.269 48.96h-56.538l-28.27-48.96 28.27-48.963z" class="cls-5" transform="translate(-62.392 -99.581)"/><g id="Group_5492" transform="translate(0 .001)"><g id="Group_5491" class="cls-6"><path id="Path_8448" d="M482.536 744.8l28.269 48.963-28.269 48.96H426l-28.27-48.96L426 744.8z" class="cls-5" transform="translate(-57.606 -107.874)"/></g></g><path id="Path_8449" d="M482.536 630.288l28.269 48.963-28.269 48.96H426l-28.27-48.96L426 630.288z" class="cls-5" transform="translate(-57.606 -91.288)"/><path id="Path_8450" d="M383.362 573.035L411.631 622l-28.269 48.96h-56.538L298.554 622l28.27-48.963z" class="cls-5" transform="translate(-43.242 -82.996)"/><path id="Path_8451" d="M185.022 573.035L213.292 622l-28.269 48.96h-56.538L100.215 622l28.27-48.963z" class="cls-5" transform="translate(-14.515 -82.996)"/><path id="Path_8452" d="M350.315 515.781l28.269 48.963-28.269 48.956h-56.537l-28.27-48.96 28.27-48.963z" class="cls-5" transform="translate(-38.455 -74.703)"/><path id="Path_8453" d="M251.136 458.527l28.269 48.963-28.269 48.96H194.6l-28.27-48.96 28.27-48.963z" class="cls-5" transform="translate(-24.09 -66.411)"/><path id="Path_8454" d="M383.362 458.527l28.269 48.963-28.269 48.96h-56.538l-28.27-48.96 28.27-48.963z" class="cls-5" transform="translate(-43.242 -66.411)"/><path id="Path_8455" d="M449.476 458.527l28.269 48.963-28.269 48.96h-56.538l-28.27-48.96 28.27-48.963z" class="cls-5" transform="translate(-52.817 -66.411)"/><path id="Path_8456" d="M383.362 344.019l28.269 48.963-28.269 48.96h-56.538l-28.27-48.96 28.27-48.963z" class="cls-5" transform="translate(-43.242 -49.826)"/><path id="Path_8457" d="M449.476 344.019l28.269 48.963-28.269 48.96h-56.538l-28.27-48.96 28.27-48.963z" class="cls-5" transform="translate(-52.817 -49.826)"/><path id="Path_8458" d="M350.315 630.288l28.269 48.963-28.269 48.96h-56.537l-28.27-48.96 28.27-48.963z" class="cls-5" transform="translate(-38.455 -91.288)"/><path id="Path_8459" d="M284.2 630.288l28.269 48.963-28.269 48.96h-56.537l-28.269-48.96 28.269-48.963z" class="cls-5" transform="translate(-28.88 -91.288)"/><path id="Path_8460" d="M151.98 515.781l28.269 48.963L151.98 613.7H95.443l-28.27-48.96 28.27-48.963z" class="cls-5" transform="translate(-9.729 -74.703)"/><g id="Group_5494" transform="translate(0 .001)"><g id="Group_5493" class="cls-6"><path id="Path_8461" d="M284.2 744.8l28.269 48.963-28.269 48.956h-56.537l-28.269-48.96 28.269-48.959z" class="cls-5" transform="translate(-28.88 -107.874)"/></g></g><path id="Path_8462" d="M548.65 630.288l28.269 48.963-28.269 48.96h-56.538l-28.27-48.96 28.27-48.963z" class="cls-5" transform="translate(-67.181 -91.288)"/><path id="Path_8463" d="M548.65 515.781l28.269 48.963L548.65 613.7h-56.538l-28.27-48.96 28.27-48.963z" class="cls-5" transform="translate(-67.181 -74.703)"/><g id="Group_5496" transform="translate(0 .001)"><g id="Group_5495" class="cls-6"><path id="Path_8464" d="M251.134.5L279.4 49.463l-28.269 48.96H194.6l-28.27-48.96L194.6.5z" class="cls-5" transform="translate(-24.09 -.072)"/></g></g><path id="Path_8465" d="M251.134 115.008l28.266 48.963-28.269 48.96H194.6l-28.27-48.96 28.27-48.963z" class="cls-5" transform="translate(-24.09 -16.656)"/><path id="Path_8466" d="M350.29 172.252l28.269 48.963-28.269 48.96h-56.537l-28.27-48.96 28.27-48.963z" class="cls-5" transform="translate(-38.452 -24.947)"/><path id="Path_8467" d="M548.571 172.547l28.269 48.963-28.269 48.96h-56.538l-28.27-48.96 28.27-48.963z" class="cls-5" transform="translate(-67.17 -24.99)"/><path id="Path_8468" d="M548.656 286.766l28.269 48.963-28.269 48.96h-56.538l-28.27-48.96 28.27-48.963z" class="cls-5" transform="translate(-67.182 -41.533)"/><path id="Path_8469" d="M482.543 286.766l28.269 48.963-28.269 48.96h-56.537l-28.27-48.96 28.27-48.963z" class="cls-5" transform="translate(-57.607 -41.533)"/><path id="Path_8470" d="M482.544 401.259l28.269 48.963-28.269 48.96h-56.537l-28.27-48.96 28.27-48.963z" class="cls-5" transform="translate(-57.607 -58.116)"/><path id="Path_8471" d="M449.488 344l28.269 48.963-28.269 48.96H392.95l-28.27-48.96L392.95 344z" class="cls-5" transform="translate(-52.819 -49.823)"/><g id="Group_5498" transform="translate(0 .001)"><g id="Group_5497" class="cls-6"><path id="Path_8472" d="M647.826 344.02l28.274 48.963-28.269 48.96h-56.543l-28.269-48.96 28.269-48.963z" class="cls-5" transform="translate(-81.546 -49.827)"/></g></g><path id="Path_8473" d="M284.176 286.76l28.269 48.963-28.269 48.96h-56.537l-28.27-48.96 28.27-48.963z" class="cls-5" transform="translate(-28.876 -41.532)"/><path id="Path_8474" d="M284.176 401.268l28.269 48.963-28.269 48.96h-56.537l-28.27-48.96 28.27-48.963z" class="cls-5" transform="translate(-28.876 -58.117)"/><path id="Path_8475" d="M350.29 286.76l28.269 48.963-28.269 48.96h-56.537l-28.27-48.96 28.27-48.963z" class="cls-5" transform="translate(-38.452 -41.532)"/><path id="Path_8476" d="M350.29 286.76l28.269 48.963-28.269 48.96h-56.537l-28.27-48.96 28.27-48.963z" class="cls-5" transform="translate(-151.98 -41.532)"/><path id="Path_8477" d="M350.29 515.776l28.269 48.963L350.29 613.7h-56.537l-28.27-48.96 28.27-48.963z" class="cls-5" transform="translate(-38.452 -74.702)"/><path id="Path_8478" d="M548.658 515.776l28.269 48.963-28.269 48.961h-56.537l-28.27-48.96 28.27-48.963z" class="cls-5" transform="translate(-67.183 -74.702)"/><path id="Path_8479" d="M383.371 458.513l28.269 48.963-28.269 48.96h-56.538l-28.27-48.96 28.27-48.963z" class="cls-5" transform="translate(-43.243 -66.409)"/><path id="Path_8480" d="M449.489 458.513l28.269 48.962-28.269 48.96h-56.537l-28.27-48.96 28.27-48.962z" class="cls-5" transform="translate(-52.819 -66.409)"/><path id="Path_8481" d="M581.712 458.513l28.269 48.963-28.269 48.96h-56.538l-28.27-48.96 28.27-48.963z" class="cls-5" transform="translate(-71.97 -66.409)"/><path id="Path_8482" d="M251.134 458.513l28.266 48.963-28.269 48.96H194.6l-28.27-48.96 28.27-48.963z" class="cls-5" transform="translate(-24.09 -66.409)"/><g id="Group_5500" transform="translate(0 .001)"><g id="Group_5499" class="cls-6"><path id="Path_8483" d="M85.887 172.264l-26.656 46.154-1.6 2.779h-.009l-.009.026H1.3l28.169-48.787.1-.18h56.3z" class="cls-5" transform="translate(-.189 -24.949)"/></g></g><path id="Path_8484" d="M185.021 115.008l28.269 48.963-28.269 48.96h-56.538l-28.27-48.96 28.27-48.963z" class="cls-5" transform="translate(-14.515 -16.656)"/><path id="Path_8485" d="M482.544 515.781l28.269 48.963-28.269 48.956h-56.537l-28.27-48.96 28.27-48.963z" class="cls-5" transform="translate(-57.607 -74.703)"/><g id="Group_5502" transform="translate(0 .001)"><g id="Group_5501" clip-path="url(#clip-path-11)"><path id="Path_8486" d="M69.857 228.965a3.221 3.221 0 10-3.221 3.221 3.22 3.22 0 003.221-3.221" class="cls-3" transform="translate(-9.185 -32.696)"/><path id="Path_8487" d="M69.857 228.965a3.221 3.221 0 10-3.221 3.221 3.22 3.22 0 003.221-3.221z" class="cls-10" transform="translate(-9.185 -32.696)"/><path id="Path_8488" d="M135.943 343.473a3.221 3.221 0 10-3.221 3.221 3.22 3.22 0 003.221-3.221" class="cls-3" transform="translate(-18.757 -49.281)"/><path id="Path_8489" d="M135.943 343.473a3.221 3.221 0 10-3.221 3.221 3.22 3.22 0 003.221-3.221z" class="cls-10" transform="translate(-18.757 -49.281)"/><path id="Path_8490" d="M169.008 171.713a3.221 3.221 0 10-3.221 3.221 3.22 3.22 0 003.221-3.221" class="cls-3" transform="translate(-23.546 -24.404)"/><path id="Path_8491" d="M169.008 171.713a3.221 3.221 0 10-3.221 3.221 3.22 3.22 0 003.221-3.221z" class="cls-10" transform="translate(-23.546 -24.404)"/><path id="Path_8492" d="M235.122 57.2a3.221 3.221 0 10-3.221 3.221 3.22 3.22 0 003.221-3.221" class="cls-3" transform="translate(-33.121 -7.819)"/><path id="Path_8493" d="M235.122 57.2a3.221 3.221 0 10-3.221 3.221 3.22 3.22 0 003.221-3.221z" class="cls-10" transform="translate(-33.121 -7.819)"/><path id="Path_8494" d="M268.171 228.965a3.221 3.221 0 10-3.221 3.221 3.221 3.221 0 003.221-3.221" class="cls-3" transform="translate(-37.908 -32.696)"/><path id="Path_8495" d="M268.171 228.965a3.221 3.221 0 10-3.221 3.221 3.221 3.221 0 003.221-3.221z" class="cls-10" transform="translate(-37.908 -32.696)"/><path id="Path_8496" d="M334.282 343.473a3.221 3.221 0 10-3.221 3.221 3.22 3.22 0 003.221-3.221" class="cls-3" transform="translate(-47.483 -49.281)"/><path id="Path_8497" d="M334.282 343.473a3.221 3.221 0 10-3.221 3.221 3.22 3.22 0 003.221-3.221z" class="cls-10" transform="translate(-47.483 -49.281)"/><path id="Path_8498" d="M433.453 400.728a3.221 3.221 0 10-3.221 3.221 3.22 3.22 0 003.221-3.221" class="cls-3" transform="translate(-61.847 -57.574)"/><circle id="Ellipse_278" cx="3.221" cy="3.221" r="3.221" class="cls-10" transform="translate(365.165 339.934)"/><path id="Path_8499" d="M367.339 515.235a3.221 3.221 0 10-3.221 3.221 3.22 3.22 0 003.221-3.221" class="cls-3" transform="translate(-52.271 -74.159)"/><path id="Path_8500" d="M367.339 515.235a3.221 3.221 0 10-3.221 3.221 3.22 3.22 0 003.221-3.221z" class="cls-10" transform="translate(-52.271 -74.159)"/><path id="Path_8501" d="M169.056 515.235a3.221 3.221 0 10-3.221 3.221 3.22 3.22 0 003.221-3.221" class="cls-3" transform="translate(-23.553 -74.159)"/><path id="Path_8502" d="M169.056 515.235a3.221 3.221 0 10-3.221 3.221 3.22 3.22 0 003.221-3.221z" class="cls-10" transform="translate(-23.553 -74.159)"/><path id="Path_8503" d="M136.007 687a3.221 3.221 0 10-3.221 3.221 3.22 3.22 0 003.221-3.221" class="cls-3" transform="translate(-18.766 -99.036)"/><path id="Path_8504" d="M136.007 687a3.221 3.221 0 10-3.221 3.221 3.22 3.22 0 003.221-3.221z" class="cls-10" transform="translate(-18.766 -99.036)"/><path id="Path_8505" d="M433.453 286.219a3.221 3.221 0 10-3.221 3.221 3.22 3.22 0 003.221-3.221" class="cls-3" transform="translate(-61.847 -40.989)"/><path id="Path_8506" d="M433.453 286.219a3.221 3.221 0 10-3.221 3.221 3.22 3.22 0 003.221-3.221z" class="cls-10" transform="translate(-61.847 -40.989)"/><path id="Path_8507" d="M235.111 400.728a3.221 3.221 0 10-3.221 3.221 3.22 3.22 0 003.221-3.221" class="cls-3" transform="translate(-33.12 -57.574)"/><circle id="Ellipse_279" cx="3.221" cy="3.221" r="3.221" class="cls-10" transform="rotate(-22.5 955.476 -318.362)"/><path id="Path_8508" d="M235.111 744.25a3.221 3.221 0 10-3.221 3.221 3.221 3.221 0 003.221-3.221" class="cls-3" transform="translate(-33.12 -107.328)"/><path id="Path_8509" d="M235.111 744.25a3.221 3.221 0 10-3.221 3.221 3.221 3.221 0 003.221-3.221z" class="cls-10" transform="translate(-33.12 -107.328)"/><path id="Path_8510" d="M334.282 457.981a3.221 3.221 0 10-3.221 3.221 3.22 3.22 0 003.221-3.221" class="cls-3" transform="translate(-47.483 -65.866)"/><circle id="Ellipse_280" cx="3.221" cy="3.221" r="3.221" class="cls-10" transform="translate(280.358 388.894)"/><path id="Path_8511" d="M334.282 687a3.221 3.221 0 10-3.221 3.221 3.22 3.22 0 003.221-3.221" class="cls-3" transform="translate(-47.483 -99.036)"/><path id="Path_8512" d="M334.282 687a3.221 3.221 0 10-3.221 3.221 3.22 3.22 0 003.221-3.221z" class="cls-10" transform="translate(-47.483 -99.036)"/><path id="Path_8513" d="M334.282 801.5a3.221 3.221 0 10-3.221 3.221 3.22 3.22 0 003.221-3.221" class="cls-3" transform="translate(-47.483 -115.621)"/><path id="Path_8514" d="M334.282 801.5a3.221 3.221 0 10-3.221 3.221 3.22 3.22 0 003.221-3.221z" class="cls-10" transform="translate(-47.483 -115.621)"/><path id="Path_8515" d="M268.218 572.487a3.221 3.221 0 10-3.218 3.221 3.22 3.22 0 003.221-3.221" class="cls-3" transform="translate(-37.915 -82.451)"/><path id="Path_8516" d="M268.218 572.487a3.221 3.221 0 10-3.218 3.221 3.22 3.22 0 003.218-3.221z" class="cls-10" transform="translate(-37.915 -82.451)"/><path id="Path_8517" d="M70.094 572.487a3.221 3.221 0 10-3.221 3.221 3.22 3.22 0 003.221-3.221" class="cls-3" transform="translate(-9.219 -82.451)"/><path id="Path_8518" d="M70.094 572.487a3.221 3.221 0 10-3.221 3.221 3.22 3.22 0 003.221-3.221z" class="cls-10" transform="translate(-9.219 -82.451)"/><path id="Path_8519" d="M466.5 572.487a3.221 3.221 0 10-3.221 3.221 3.22 3.22 0 003.221-3.221" class="cls-3" transform="translate(-66.634 -82.451)"/><path id="Path_8520" d="M466.5 572.487a3.221 3.221 0 10-3.221 3.221 3.22 3.22 0 003.221-3.221z" class="cls-10" transform="translate(-66.634 -82.451)"/><path id="Path_8521" d="M466.5 687a3.221 3.221 0 10-3.221 3.221A3.22 3.22 0 00466.5 687" class="cls-3" transform="translate(-66.634 -99.036)"/><path id="Path_8522" d="M466.5 687a3.221 3.221 0 10-3.221 3.221A3.22 3.22 0 00466.5 687z" class="cls-10" transform="translate(-66.634 -99.036)"/><path id="Path_8523" d="M466.5 801.5a3.221 3.221 0 10-3.221 3.221 3.22 3.22 0 003.221-3.221" class="cls-3" transform="translate(-66.634 -115.621)"/><path id="Path_8524" d="M466.5 801.5a3.221 3.221 0 10-3.221 3.221 3.22 3.22 0 003.221-3.221z" class="cls-10" transform="translate(-66.634 -115.621)"/></g></g></g><path id="Line_384" d="M0 0h124.769" class="cls-2" transform="translate(5856.764 3050.77)"/><path id="Line_385" d="M0 0h124.769" class="cls-2" transform="translate(5856.764 3148.562)"/><path id="Line_386" d="M0 0h114.653" class="cls-2" transform="translate(5856.764 2953.09)"/><path id="Line_387" d="M0 0h114.653" class="cls-2" transform="translate(5856.764 2903.97)"/></g></svg>