<svg xmlns="http://www.w3.org/2000/svg" width="1400" height="444" viewBox="0 0 1400 444">
    <defs>
        <clipPath id="prefix__clip-path">
            <path id="prefix__Path_8080" fill="#001d2e" stroke="#707070" d="M0 0h1400v444L0 339z" data-name="Path 8080"/>
        </clipPath>
        <clipPath id="prefix__clip-path-2">
            <path id="prefix__Rectangle_1155" d="M0 0H2423.981V1341.274H0z" data-name="Rectangle 1155"/>
        </clipPath>
        <style>
            .prefix__cls-6{fill:#7b803a}.prefix__cls-7{fill:#b9bf57}.prefix__cls-11{fill:#17a4f9}.prefix__cls-12{fill:#d2db4e}
        </style>
    </defs>
    <g id="prefix__Mask_Group_1" data-name="Mask Group 1" style="isolation:isolate" clip-path="url(#prefix__clip-path)">
        <g id="prefix__header_bkgrd-02" transform="rotate(9 3611.112 -3429.396) translate(0 -108.375)" style="isolation:isolate">
            <g id="prefix__Group_4012" clip-path="url(#prefix__clip-path-2)" data-name="Group 4012" opacity="0.6">
                <g id="prefix__Group_4008" data-name="Group 4008" transform="translate(1723.343 -282.925)">
                    <path id="prefix__Path_7377" fill="#004c7a" d="M1000.793 1004.105l114.966 140.415-30.127 73.7-.173.7 52.462-47.154 83.627 102.167.346.524-.173-.524 11.427-187.744 112.2 45.582v.873l.173-.873 103.539-59.729 120.506 34.754.173.175v-.175l98.171-113 93.843 9.431 59.387-71.255 75.49 84.7v-.524l32.9-159.8 159.29-19.036 49.345 150.719v.175l190.11 10.479.693.524-.52-.7 119.295-235.6 148.209 128.539.173.175 5.367-49.6 70.122 36.151v.349l116.525-103.914h.173l-86.571-177.789h.173l-.173-.175L2849.6 488.378h.174l-.174-.175-7.791-55.188 90.726-104.787.173-.175L2802.5 310.59l-78.26-99.024-15.756-71.779 73.759-73-56.614-228.087-.173-.7-40.688 194.9v.175L2567.2 63.118l.173.349 56.617 70.207v.524l1.212 87.323-122.402 75.272-101.288-80.686-.173-.524.173 1.223 48.479 112.471-142.322 84.7-15.241 236.823-279.1-.7v-.175l-.173.175h-.173l.173.175-159.121 104.437 17.66 108.105-100.422 12.051-46.056 53.092-55.232-110.376-.173.349-72.373 168.358-104.231 60.253L1393.3 969h-.173l-29.954-118.235.173-.175h-.173l-38.784-37.549 11.081-69.159.693-.7-.519.175-.346.349-126.563-42.606-.519-.175h-.346l62.85 60.777-140.937 38.6-.692-.175.519.349-128.817 203.462h-.693zm129.337-203.287l119.295 79.813-74.8 120.156zm203.615-56.41l.52-.175-30.646 49.25-32.9-31.785 63.543-17.639zm-10.388 68.81l-4.5 27.943-39.3-8.558 24.067-38.6zm-4.5 28.118l-12.293 77.018-56.79-37.9 29.607-47.5zm-11.947 77.542l85.012 49.949-67.872 9.955zm62.331 129.936l-23.547 81.734-3.982-89.768zm-27.53-8.208l50.211-70.731-22.682 78.59zm-.173-.349l-7.964-27.943 58-42.614zm-8.138-28.293l-9.35-32.833 67.7-9.955zm-9.7-33.008l-148.9 21.831 74.8-120.156 56.791 37.9h.173zm-193.051-178.138l148.382 31.96-29.607 47.5zM1270.2 761.7l33.07 31.96-24.07 38.769-148.729-32.135zm63.889-17.988l-63.889 17.637-62.33-60.249zm-10.734 68.985l-19.738-19.036 30.646-49.25zm38.61 37.723l-42.766-9.256 4.5-27.769zm.173.349l-55.232 67.413 12.293-76.669zm29.953 118.06l-85.357-50.129 55.578-67.588zm378.488-93.435l-8.83 126.967-37.049-74.052zm101.115-12.4l7.272-.873-6.233 7.335zM2012.8 650.623l-68.91 133.6-64.582 77.542-7.618.873-17.66-107.931zm44.671 109.5l-113.235 24.1 68.911-133.6zm-43.8-108.979l79.129 101.472-34.975 7.51zm128.817 91.165l146.478-43.487-26.837 51.346zm119.641 8.034l-47.787 91.514-72.373-99.2zM2289.312 699l8.484 53.267-35.148-2.267zm.173-.349l84.666-47.329-37.572 103.565-38.437-2.445zm46.921 56.585l-26.317 72.3-11.947-74.748zm-26.491 72.827l-78.952 36.326-16.275-22.18 47.787-91.689 35.321 2.27zm-79.472 36.5l-36.36 16.766 20.257-38.771zm-36.533 16.591l-51.6-137.795 72.027 98.674zm-.52-.524l-75.143-96.055 23.374-41.74zm0 .524L2089.16 836.8l29.088-51.87zm-99.9-128.364l47.96-10.129-23.374 41.74zm-.173-.175l-79.3-101.643 127.432 91.339zm198.94-101.643l-3.117 47.5-147.517 43.836-127.951-91.863zm.346 0l81.377.175-84.32 46.979zm15.063-235.945l66.486 235.945-81.722-.175zm.173-.524l125.354 128.888-58.868 107.232zm301.093-34.23l55.925-81.734 15.237 29.515zm71.161-52.044l43.285 84-114.792-31.261zm-54.366-106.01l58 48.027-18.872 27.769zm58.176 48.027l34.975 28.816-38.611 28.467-15.237-29.515zm35.321 29.166l55.232 79.987-50.556 32.659-43.458-84.179zm.346.175l109.251 44.713-54.194 34.929zm104.924 152.465l-11.774 13.622-88.648-53.267 50.557-32.659zm-11.947 13.8l-27.53 31.611-60.773-84.528zm-27.7 31.785l-72.547 10.127 11.6-94.832zm-72.893 10.129L2609.8 521.91l113.754-109.153zm-102.673 14.321l-.692-.524-.174-140.415 114.966 31.261zm-175.566 21.481l59.214-107.931-9 159.626zm50.038 51.87l-108.906 55.188 58.7-106.883zm9.522-160.324l115.139 86.449v.349l.52.349-124.489 72.827zm66.487 160.5l-75.144-.175 124.316-72.652zm49.345-72.827l1.212 73-50.384-.175zm-158.774-193.161l157.559 51.346-114.792 53.79zm157.905 51.52l.173 140.065-114.966-86.275zm1.212 141.812l91.419 73-90.207-.349zm91.592 73.351L2612.913 736.2l-2.251-140.24zm0 .524l-16.275 155.085-71.854-15.369zm-88.476 139.716l-118.775-42.613 66.14-97.976 50.557.175zm-118.948-42.788l-28.568-10.3 19.219-87.846 75.316.175zm-.173.175l-45.537 67.413 16.968-77.717zm-28.745-10.654l-89.861-32.309 109.079-55.188zm-156.689-268.953l184.742 20.608-59.387 108.28zM2450.16 329.8l42.766 104.962-184.915-20.783 141.8-84.354zm52.289-32.833l-52.116 31.96h-.346l-48.479-112.3zm105.1 83.48l-157.039-51.171 52.289-32.135zm17.66-158.578l-16.968 158.752-105.1-83.655zm.173.175l39.3 75.971-56.1 82.258zm.173-.524l49-48.551 49.345 38.247-40 58.681zm48.826-48.726L2625.726 221l21.816-69.159zm-50.038-39.121l60.08-99.722-37.052 117.536zm0 .349l22.854 17.814-21.816 68.81zM2684.594 32.9l-60.6 100.421-56.444-70.553zm97.306 33.186l-96.787-33.357.346-1.048-.173.349 40.168-192.808zm-73.412 73l-23.2-106.01 96.612 33.36zm-.346.175l-33.59 33.357-27.01-20.957 37.4-118.409zm15.756 71.6l-49-38.073 33.417-33.183zm78.087 99.2l-82.762-11-35.148-28.991 40-58.681zm26.664 33.881l-108.387-44.36 81.9 11zm102.672-16.242l-101.98 16.417-26.491-33.527zm-89.687 104.438l-12.293-87.672 102.673-16.417zm-.173.349l-16.795 19.386-49.866-72.124 54.193-35.1zm7.618 54.664l-24.24-35.1 16.622-19.211zm-.173 0l-35.84-21.481 11.6-13.448zm0 .524l-63.543 9.955 27.356-31.611zm-146.652 107.586l82.762-97.452 63.716-9.955zm-.692.349l10.735-87.672 72.374-10.129zm-.346.349l-91.765-73.351v-.175l102.5-14.321zm86.571 177.963l-102.5-21.831 16.275-155.259zm-115.833 103.565l13.159-125.221 102.5 21.831zm-70.468-35.977l11.427-104.438 71.854 15.369-13.159 125.4zM2448.6 762.92l152.538 78.765-5.367 49.075zm-.519-.524l164.657-25.324-11.427 104.438zm-.173-.349l45.709-67.937 118.429 42.613zm-73.066-110.725l89.688 32.309-17.141 78.241zm72.373 110.725l-110.464-7.16 37.749-103.565zm-118.948 235.6l-18.007-169.406 26.491-72.827 110.637 7.161zm-97.305-132.9l78.952-36.326 18.007 169.231zm96.613 132.73l-237.2-159.8 103.539 44.01v.175l.173-.349 36.706-16.941zM2089.16 837.319l238.416 160.674-189.417-10.479zm-31.165-77.019l35.148-7.51 24.759 31.785-29.088 51.87zm30.473 76.32l-144.054-52.22 113.062-23.926zm-159.117 19.211l14.717-71.255 144.053 52.224zm-.173 0l-49.518 5.938 64.062-76.844zm-32.723 159.276l-23.72-145.13 6.58-7.859 49.685-5.937zm-75.144-83.48l51.077-61.3 23.72 145.13zm-50.211-56.585l100.249-12.05 1.039 6.811-51.25 61.475zm-9.177 127.316l8.83-126.967 50.211 56.236zm-93.67-9.082l56.271-64.793 37.052 74.05zm-.519 0l-70.642-7.16 72.027-167.834 55.059 110.026zm-97.825 112.824l27.183-119.457 70.468 6.986zm-77.221-59.379l104.058-60.078-27.183 119.632zm-43.112 24.974l42.939-24.8 76.529 59.379zm-79.991-23.053l22.854-79.289 99.73 77.368-43.112 24.974zm-23.72 82.607l23.72-82.432 79.3 22.879zm-112.542-45.408l99.9-73.351 8.138 28.118 3.982 90.641zm-58.522-84.7l149.075-21.831 9.523 33.008-100.076 73.351zm57.829 84.354l-46.229-16.242-11.6-67.588zm-58.175-84l11.6 67.588-34.282-12.051zm-22.855 55.537l-149.768-52.743 172.449-2.969zm34.974 12.574l46.229 16.242-37.572 33.881zm34.975 202.763l-26.317-152.29 37.572-33.881zm-83.454-100.77l56.791-51.171 26.491 152.815zm-21.989-27.07l35.494-87.329 34.455 12.225 8.657 50.473-56.964 51.346zm-.173.349l21.643 26.546-51.423 46.281zm-114.62-140.415l150.114 52.917-35.494 86.973zm-.173-.524l128.644-203.112 44.5 199.969z" data-name="Path 7377" transform="translate(-991.854 162)"/>
                    <g id="prefix__Group_4006" data-name="Group 4006" transform="translate(4.437 858.243)">
                        <path id="prefix__Path_7378" d="M1098.423 504.428a4.464 4.464 0 0 1 1.731-2.27 4.118 4.118 0 0 1 3.463-.7 4.246 4.246 0 0 1 2.943 1.921 4.521 4.521 0 0 1 .519 4.192 4.464 4.464 0 0 1-1.731 2.27 4.649 4.649 0 0 1-6.406-1.223 4.579 4.579 0 0 1-.519-4.19z" class="prefix__cls-6" data-name="Path 7378" transform="translate(-924.589 -201.107)"/>
                        <path id="prefix__Path_7379" d="M1206.906 418.3a4.464 4.464 0 0 1 1.731-2.27 4.649 4.649 0 0 1 6.406 1.223 4.521 4.521 0 0 1 .52 4.191 4.465 4.465 0 0 1-1.731 2.27 4.118 4.118 0 0 1-3.463.7 4.247 4.247 0 0 1-2.943-1.921 5.165 5.165 0 0 1-.52-4.193z" class="prefix__cls-6" data-name="Path 7379" transform="translate(-845.213 -265.352)"/>
                        <path id="prefix__Path_7380" d="M1117.423 332.528a4.464 4.464 0 0 1 1.731-2.27 4.118 4.118 0 0 1 3.463-.7 4.247 4.247 0 0 1 2.943 1.921 4.521 4.521 0 0 1 .52 4.191 4.467 4.467 0 0 1-1.732 2.27 4.118 4.118 0 0 1-3.463.7 4.246 4.246 0 0 1-2.943-1.921 4.52 4.52 0 0 1-.519-4.191z" class="prefix__cls-6" data-name="Path 7380" transform="translate(-910.692 -329.422)"/>
                        <path id="prefix__Path_7381" d="M1073.223 389.4a2.77 2.77 0 0 1 1.385-1.747 3.822 3.822 0 0 1 2.77-.524 3.4 3.4 0 0 1 2.251 1.572 3.677 3.677 0 0 1 .519 3.318 2.771 2.771 0 0 1-1.385 1.746 3.821 3.821 0 0 1-2.77.524 3.4 3.4 0 0 1-2.251-1.572 3 3 0 0 1-.519-3.317z" class="prefix__cls-7" data-name="Path 7381" transform="translate(-943.021 -286.395)"/>
                        <path id="prefix__Path_7382" d="M998.073 506.128a4.468 4.468 0 0 1 1.731-2.27 4.118 4.118 0 0 1 3.463-.7 4.246 4.246 0 0 1 2.943 1.921 4.521 4.521 0 0 1 .52 4.192 4.467 4.467 0 0 1-1.732 2.27 4.118 4.118 0 0 1-3.463.7 4.247 4.247 0 0 1-2.943-1.921 5.847 5.847 0 0 1-.519-4.192z" class="prefix__cls-6" data-name="Path 7382" transform="translate(-997.9 -199.838)"/>
                        <path id="prefix__Path_7383" d="M1125.606 660.528a4.466 4.466 0 0 1 1.731-2.27 4.118 4.118 0 0 1 3.463-.7 4.247 4.247 0 0 1 2.944 1.921 4.522 4.522 0 0 1 .519 4.191 4.467 4.467 0 0 1-1.731 2.27 4.118 4.118 0 0 1-3.463.7 4.247 4.247 0 0 1-2.943-1.921 5.085 5.085 0 0 1-.52-4.191z" class="prefix__cls-6" data-name="Path 7383" transform="translate(-904.677 -84.586)"/>
                        <path id="prefix__Path_7384" d="M1190.923 357.128a4.467 4.467 0 0 1 1.731-2.27 4.118 4.118 0 0 1 3.463-.7 4.245 4.245 0 0 1 2.943 1.921 4.521 4.521 0 0 1 .52 4.192 4.464 4.464 0 0 1-1.732 2.27 4.649 4.649 0 0 1-6.406-1.223 4.521 4.521 0 0 1-.519-4.19z" class="prefix__cls-6" data-name="Path 7384" transform="translate(-856.933 -311.059)"/>
                        <path id="prefix__Path_7385" d="M1174.523 457.237a4.51 4.51 0 0 1 1.9-2.445 5.407 5.407 0 0 1 3.636-.873 4.439 4.439 0 0 1 3.116 2.1 5.3 5.3 0 0 1 .693 4.541 4.511 4.511 0 0 1-1.9 2.445 4.955 4.955 0 0 1-6.926-1.223 5.248 5.248 0 0 1-.519-4.545z" class="prefix__cls-6" data-name="Path 7385" transform="translate(-868.929 -236.523)"/>
                        <path id="prefix__Path_7386" d="M1194.923 527.128a4.465 4.465 0 0 1 1.731-2.27 4.118 4.118 0 0 1 3.463-.7 4.246 4.246 0 0 1 2.943 1.921 4.521 4.521 0 0 1 .519 4.191 4.464 4.464 0 0 1-1.731 2.271 4.649 4.649 0 0 1-6.406-1.223 4.579 4.579 0 0 1-.519-4.19z" class="prefix__cls-6" data-name="Path 7386" transform="translate(-854.008 -184.162)"/>
                        <path id="prefix__Path_7387" d="M1326.723 564.8a4.468 4.468 0 0 1 1.731-2.271 4.649 4.649 0 0 1 6.406 1.223 4.521 4.521 0 0 1 .519 4.192 4.463 4.463 0 0 1-1.731 2.27 4.649 4.649 0 0 1-6.406-1.223 4.458 4.458 0 0 1-.519-4.191z" class="prefix__cls-6" data-name="Path 7387" transform="translate(-757.607 -155.997)"/>
                        <path id="prefix__Path_7388" d="M1224.88 486a3.994 3.994 0 0 1 1.212-1.746 3.323 3.323 0 0 1 4.675.873 2.91 2.91 0 0 1 .346 3.144 4 4 0 0 1-1.212 1.746 3.389 3.389 0 0 1-2.6.524 3.845 3.845 0 0 1-2.251-1.4 4.907 4.907 0 0 1-.17-3.141z" class="prefix__cls-6" data-name="Path 7388" transform="translate(-832.022 -214.292)"/>
                        <path id="prefix__Path_7389" d="M1048.076 628.724c.173-.7.693-1.048 1.039-1.572a2.609 2.609 0 0 1 2.251-.524 3.287 3.287 0 0 1 1.9 1.222 2.87 2.87 0 0 1 .346 2.62 2.714 2.714 0 0 1-1.039 1.4 3.151 3.151 0 0 1-4.155-.7 2.332 2.332 0 0 1-.342-2.446z" class="prefix__cls-6" data-name="Path 7389" transform="translate(-961.332 -107.62)"/>
                        <path id="prefix__Path_7390" d="M1197.576 579.139a3.661 3.661 0 0 1 1.385-1.921 4.137 4.137 0 0 1 2.771-.7 3.365 3.365 0 0 1 2.424 1.572 4.144 4.144 0 0 1 .519 3.493 4.95 4.95 0 0 1-1.385 1.921 3.873 3.873 0 0 1-5.367-1.048 4.384 4.384 0 0 1-.347-3.317z" class="prefix__cls-6" data-name="Path 7390" transform="translate(-851.986 -145.009)"/>
                        <path id="prefix__Path_7391" d="M1342.406 496a4.466 4.466 0 0 1 1.731-2.27 4.649 4.649 0 0 1 6.406 1.223 4.522 4.522 0 0 1 .519 4.191 4.466 4.466 0 0 1-1.731 2.27 4.649 4.649 0 0 1-6.406-1.223 5.085 5.085 0 0 1-.519-4.191z" class="prefix__cls-6" data-name="Path 7391" transform="translate(-746.106 -207.353)"/>
                        <path id="prefix__Path_7392" d="M1384.573 399.473a4.955 4.955 0 0 1 1.385-1.921 3.822 3.822 0 0 1 2.77-.524 3.364 3.364 0 0 1 2.424 1.572 3.852 3.852 0 0 1 .52 3.318 4.951 4.951 0 0 1-1.385 1.921 3.984 3.984 0 0 1-2.77.524 3.364 3.364 0 0 1-2.424-1.572 3.679 3.679 0 0 1-.52-3.318z" class="prefix__cls-6" data-name="Path 7392" transform="translate(-715.208 -279.006)"/>
                        <path id="prefix__Path_7393" d="M1132.205 552.9a4.467 4.467 0 0 1 1.731-2.27 4.649 4.649 0 0 1 6.406 1.223 4.521 4.521 0 0 1 .519 4.192 4.465 4.465 0 0 1-1.731 2.27 4.84 4.84 0 0 1-3.463.7 4.246 4.246 0 0 1-2.943-1.921 5.088 5.088 0 0 1-.519-4.194z" class="prefix__cls-6" data-name="Path 7393" transform="translate(-899.85 -164.88)"/>
                    </g>
                    <g id="prefix__Group_4007" data-name="Group 4007" transform="translate(0 896.851)">
                        <path id="prefix__Path_7394" d="M1324.628 565.392a8.988 8.988 0 1 1 5.54 11.527 9 9 0 0 1-5.54-11.527zm16.621 5.763a8.86 8.86 0 0 0-5.367-11.177 8.746 8.746 0 0 0-11.081 5.414 8.86 8.86 0 0 0 5.367 11.177 8.676 8.676 0 0 0 11.081-5.414z" class="prefix__cls-6" data-name="Path 7394" transform="translate(-754.884 -196.415)"/>
                        <path id="prefix__Path_7395" d="M1192.628 527.521a8.863 8.863 0 0 1 11.427-5.589 9.05 9.05 0 1 1-11.427 5.589zm16.622 5.763a8.86 8.86 0 0 0-5.367-11.177 8.745 8.745 0 0 0-11.081 5.414 8.86 8.86 0 0 0 5.367 11.177 8.412 8.412 0 0 0 11.08-5.414z" class="prefix__cls-6" data-name="Path 7395" transform="translate(-851.431 -224.735)"/>
                        <path id="prefix__Path_7396" d="M1188.628 357.592a8.989 8.989 0 1 1 5.54 11.527 9 9 0 0 1-5.54-11.527zm16.621 5.763a8.859 8.859 0 0 0-5.367-11.177 8.745 8.745 0 0 0-11.081 5.414 8.859 8.859 0 0 0 5.367 11.177 8.676 8.676 0 0 0 11.081-5.414z" class="prefix__cls-6" data-name="Path 7396" transform="translate(-854.356 -351.528)"/>
                        <path id="prefix__Path_7397" d="M1123.3 660.992a8.989 8.989 0 1 1 5.541 11.527 9.12 9.12 0 0 1-5.541-11.527zm16.795 5.763a8.86 8.86 0 0 0-5.367-11.177 8.745 8.745 0 0 0-11.081 5.414 8.86 8.86 0 0 0 5.367 11.177 8.745 8.745 0 0 0 11.08-5.414z" class="prefix__cls-6" data-name="Path 7397" transform="translate(-902.089 -125.055)"/>
                        <path id="prefix__Path_7398" d="M1096.1 504.792a8.988 8.988 0 1 1 5.54 11.527 9.12 9.12 0 0 1-5.54-11.527zm16.794 5.938a8.859 8.859 0 0 0-5.367-11.177 8.745 8.745 0 0 0-11.081 5.414 8.859 8.859 0 0 0 5.367 11.177 8.745 8.745 0 0 0 11.081-5.414z" class="prefix__cls-6" data-name="Path 7398" transform="translate(-921.984 -241.65)"/>
                        <path id="prefix__Path_7399" d="M995.792 506.592a8.989 8.989 0 1 1 5.541 11.527 9.345 9.345 0 0 1-5.541-11.527zm16.795 5.763a8.86 8.86 0 0 0-5.367-11.177 8.745 8.745 0 0 0-11.081 5.414 8.859 8.859 0 0 0 5.367 11.177 8.676 8.676 0 0 0 11.081-5.414z" class="prefix__cls-6" data-name="Path 7399" transform="translate(-995.338 -240.307)"/>
                    </g>
                </g>
                <g id="prefix__Group_4011" data-name="Group 4011" transform="translate(-25.625 439.47)">
                    <path id="prefix__Path_7400" fill="rgba(0,153,244,0.8)" d="M2133.329 649.735l-127.844-156.144 33.5-81.956.192-.777-58.338 52.436-92.995-113.612-.385-.583.193.583-12.707 208.968-124.764-50.688v-.971l-.193.971-115.137 66.419-134.005-38.647-.192-.194v.194l-109.168 125.653-104.354-10.487-66.04 79.237-83.946-94.191v.583l-36.389 177.7L923.623 835.4 868.75 667.8v-.2l-211.4-11.653-.77-.583.578.777-132.663 261.99-164.812-142.938-.193-.194-5.969 54.961-77.977-40.2v-.389L145.968 905.119h-.193l96.268 197.7h-.193l.193.194-164.425 120.413h-.193l.193.194 8.664 61.37-100.889 116.525-.193.194 144.787 19.421 86.834 110.116 17.521 79.82-82.021 81.374 62.959 253.636.193.777 45.246-216.736v-.194l130.732-33.4-.193-.388-62.958-78.465v-.583l-1.348-97.1 136.123-83.7L575.709 1526l.193.583-.193-1.36-53.91-125.07 158.265-94.191 16.943-263.347 310.369.777v.194l.193-.194h.193l-.193-.194 176.941-116.133-19.639-120.215 111.671-13.4 51.215-59.039 61.419 122.74.192-.388 80.48-187.217 115.907-67 111.094 86.229h.192l33.309 131.475-.193.194h.193l43.128 41.755-12.322 76.907-.77.777.578-.194.385-.389 140.744 47.387.578.194h.385l-69.891-67.581 155.762-43.114.77.194-.578-.388 143.247-226.253h.963zM1989.5 875.793l-132.653-88.753 83.176-133.615zm-226.423 62.73l-.578.194 34.079-54.767 36.582 35.346-70.66 19.615zM1774.634 862l5.006-31.073 43.706 9.516-26.763 42.92zm5.006-31.268l13.67-85.646 63.152 42.143-32.924 52.825zm13.477-86.228l-94.728-55.738 75.474-11.07zm-69.506-144.491l26.185-91.084 4.428 99.823zm30.613 9.128l-55.835 78.659 25.222-87.394zm.192.388l8.857 31.073-64.5 47.387zm9.051 31.471l10.4 36.511-75.282 11.07zm10.782 36.705l165.581-24.276-83.176 133.611-63.154-42.14h-.192zm214.678 198.092l-165-35.54 32.924-52.825zM1833.743 919.1l-36.774-35.54 26.763-43.114 165.388 35.734zm-71.043 20.2l71.046-19.615 69.313 67zm11.937-76.713l21.949 21.169-34.086 54.767zm-42.743-41.949l47.556 10.293-5.006 30.879zm-.385-.388l61.419-74.964-13.67 85.258zM1698.2 688.965l94.728 55.738-61.8 75.159zm-420.885 103.9l9.819-141.19 41.2 82.345zm-112.249 13.789l-8.087.971 6.931-8.157zm-156.917 236.157l76.629-148.569 71.816-86.229 8.472-.971 19.634 120.022zm-49.87-121.767l125.919-26.8-76.63 148.569zm48.712 121.186L919 929.395l38.892-8.351zM863.744 940.853l-162.886 48.358 29.843-57.1zM730.7 931.919l53.14-101.765 80.48 110.31zm-30.228 57.1l-9.434-59.234 39.085 2.525zm-.193.388l-94.15 52.63L648.1 926.87l42.743 2.719zM648.1 926.482l29.266-80.4 13.288 83.118zm29.654-80.982l87.8-40.4 18.1 24.664-53.338 101.961-39.277-2.525zm88.182-40.59l40.433-18.644-22.527 43.309zm40.818-18.45l57.376 153.23-80.1-109.728zm.578.389l83.559 106.811-26.185 46.61zm0-.389l115.907 49.329-32.346 57.68zm110.9 142.74L864.9 940.465l25.992-46.416zm.385.194l88.182 113.029-141.708-101.57zM697.2 1042.424l3.466-52.825 164.041-48.746 142.285 102.154zm-.193 0l-90.492-.194 93.765-52.242zM680.064 1304.8l-73.934-262.376 90.877.194zm-.192.583l-139.4-143.326 65.462-119.05zm-334.821 38.065l-62 90.889-16.943-32.821zm-79.133 57.874l-48.134-93.414 127.652 34.763zm60.456 117.885l-64.5-53.408 20.986-30.879zm-64.692-53.407l-38.892-32.044 42.936-31.656 16.943 32.821zm-39.082-32.434l-61.419-88.947L217.4 1308.1l48.327 93.608zm-.578-.194l-121.491-49.717 60.264-38.842zm-116.679-169.544l13.092-15.148 98.579 59.234-56.221 36.317zm13.285-15.343l30.613-35.152 67.58 94zm31-35.346l80.673-11.264L217.4 1307.13zm80.865-11.264l113.6-15.731-126.5 121.38zm114.174-15.925l.77.582.193 156.144-127.844-34.763zm195.233-23.888l-65.85 120.021 10.012-177.507zm-55.643-57.68l121.105-61.37-65.27 118.856zm-10.59 178.283l-128.037-96.133v-.388l-.578-.388 138.434-80.985zm-73.934-178.477l83.561.194-138.241 80.791zm-54.873 80.985l-1.348-81.179 56.028.194zm176.556 214.795l-175.208-57.1 127.652-59.622zm-175.593-57.292l-.193-155.755 127.844 95.939zm-1.348-157.7L242.814 1103.6l100.312.389zm-101.852-81.567l98-155.561 2.5 155.949zm0-.583l18.1-172.457 79.9 17.09zm98.386-155.367l132.08 47.387-73.358 108.954-56.221-.194zm132.271 47.584l31.769 11.458-21.372 97.687-83.753-.194zm.385-.194L524.3 919.49l-18.869 86.422zm31.769 11.847l99.926 35.929-121.3 61.37zm174.246 299.081l-205.437-22.917 66.04-120.409zm-158.073 94l-47.557-116.723 205.629 23.111-157.687 93.8zm-58.146 36.511l57.953-35.54h.385l53.91 124.876zm-116.87-92.832l174.631 56.9-58.146 35.734zm-19.446 176.341l18.869-176.535 116.87 93.026zm-.385-.194l-43.706-84.481 62.382-91.472zm-.193.583l-54.488 53.99-54.873-42.532 44.476-65.254zm-54.3 54.184l54.1-53.6-24.26 76.906zm55.643 43.5l-66.81 110.893 41.4-130.7zm0-.388l-25.41-19.81 24.26-76.518zm-67 112.446l67.388-111.67 62.767 78.46zm-108.205-36.9l107.628 37.094-.385 1.165.193-.388-44.861 214.6zm81.636-81.179l25.8 117.885-107.434-37.094zm.385-.194l37.352-37.094 30.036 23.305-41.587 131.674zm-17.521-79.626l54.488 42.337-37.16 36.9zm-86.834-110.31l92.032 12.235 39.085 32.239-44.476 65.254zm-29.651-37.676l120.528 49.329-91.07-12.235zM-13.452 1401.9l113.4-18.256 29.651 37.288zm99.734-116.137l13.67 97.493-114.174 18.45zm.193-.389l18.676-21.557 55.45 80.208-60.264 39.23zM78 1224.592l26.955 39.036-18.481 21.362zm.385 0l39.855 23.887-12.9 14.954zm-.193-.583l70.661-11.07-30.421 35.152zm163.078-119.632l-92.032 108.368-70.853 11.07zm.77-.389l-11.937 97.493-80.48 11.264zm.385-.389l102.044 81.568v.194l-113.982 15.925zM146.353 905.7l113.982 24.276-18.1 172.651zm128.614-115.164l-14.632 139.247-113.982-24.276zm78.362 40.007l-12.707 116.136-79.9-17.09 14.633-139.442zm170.01 87.394l-169.624-87.588 5.969-54.573zm.578.583l-182.91 28.16 12.707-116.137zm.193.388l-50.83 75.547-131.888-47.387zm81.25 123.128l-99.734-35.929 19.061-87.007zm-80.48-123.129l122.838 7.963-41.973 115.165zM657.152 656.92l20.024 188.38-29.458 80.985-123.031-7.962zm108.206 147.793l-87.8 40.4-20.021-188.193zm-107.243-147.6l263.775 177.7-115.137-48.938v-.194l-.193.389-40.818 18.838zM923.045 835.2L657.922 656.532l210.635 11.652zm34.655 85.65l-39.083 8.35-27.533-35.346 32.346-57.68zm-33.887-84.869l160.191 58.068-125.725 26.606zm176.941-21.363l-16.366 79.237L924.2 835.786zm.193 0l55.065-6.6-71.239 85.452zm36.391-177.118l26.378 161.387-7.316 8.739-55.258 6.6zm83.561 92.831L1164.1 798.5l-26.378-161.387zm56.028 62.924l-111.479 13.4-1.155-7.574 56.991-68.361zm10.012-141.578l-9.819 141.19-55.836-62.535zm104.162 9.9l-62.382 72.051-41.2-82.344zm.578.194l78.555 7.768-80.866 187.611-60.649-122.74zm108.783-125.459l-30.228 132.838-78.362-7.768zm85.871 66.031l-115.714 66.807 30.228-133.033zm47.942-27.772l-47.749 27.578-85.1-66.031zm88.952 25.635l-25.415 88.17-110.9-86.034 47.942-27.772zm26.377-91.861l-26.185 91.472-88.182-25.441zm125.149 50.494l-111.094 81.567-9.049-31.268-4.429-100.794zm65.077 94.191l-165.774 24.276-10.59-36.705 111.286-81.568zm-64.307-93.8l51.407 18.061 12.9 75.159zm64.692 93.414l-12.9-75.159 38.123 13.4zm25.415-61.758l166.544 58.651-191.766 3.3zm-38.892-13.983l-51.407-18.061 41.78-37.676zm-38.892-225.473l29.266 169.35-41.781 37.676zm92.8 112.058l-63.152 56.9-29.458-169.932zm24.452 30.1l-39.47 97.1-38.313-13.588-9.627-56.126 63.344-57.1zm.193-.388l-24.26-29.52 57.183-51.465zm127.459 156.144L1965.823 590.5l39.47-96.91zm.193.583L1989.89 875.793l-49.482-222.369z" data-name="Path 7400" transform="translate(14.8 -339.832)"/>
                    <g id="prefix__Group_4009" data-name="Group 4009" transform="translate(155.547 4.843)">
                        <path id="prefix__Path_7985" fill="none" stroke="#117bbb" stroke-width="0.4px" d="M233.571 712.779l97.844 32.791 90.878-131.383" data-name="Path 7985" opacity="0.5" transform="translate(712.703 -163.327)"/>
                        <path id="prefix__Path_7401" d="M76.023 639.661a5.324 5.324 0 0 1-6.546 3.3 5.392 5.392 0 0 1-3.273-6.6 5.058 5.058 0 0 1 6.546-3.107 4.811 4.811 0 0 1 3.273 6.407z" class="prefix__cls-6" data-name="Path 7401" transform="translate(-65.988 -77.275)"/>
                        <path id="prefix__Path_7402" d="M126.123 741.7a5.058 5.058 0 0 1-6.546 3.107 5.393 5.393 0 0 1-3.273-6.6 5.324 5.324 0 0 1 6.546-3.3 5.709 5.709 0 0 1 3.273 6.793z" class="prefix__cls-6" data-name="Path 7402" transform="translate(-19.628 18.582)"/>
                        <path id="prefix__Path_7403" d="M449.323 657.955a5.058 5.058 0 0 1-6.546 3.107 5.392 5.392 0 0 1-3.273-6.6 5.058 5.058 0 0 1 6.546-3.107 5.226 5.226 0 0 1 3.273 6.6z" class="prefix__cls-6" data-name="Path 7403" transform="translate(279.45 -60.223)"/>
                        <path id="prefix__Path_7404" d="M523.523 710.8a5.058 5.058 0 0 1-6.546 3.107 5.392 5.392 0 0 1-3.273-6.6 5.212 5.212 0 1 1 9.819 3.5z" class="prefix__cls-6" data-name="Path 7404" transform="translate(348.112 -10.528)"/>
                        <path id="prefix__Path_7405" d="M615.623 650.855a5.058 5.058 0 0 1-6.546 3.107 5.392 5.392 0 0 1-3.273-6.6 5.058 5.058 0 0 1 6.546-3.107 5.392 5.392 0 0 1 3.273 6.6z" class="prefix__cls-6" data-name="Path 7405" transform="translate(433.338 -66.912)"/>
                        <path id="prefix__Path_7406" d="M591.023 501.261a5.324 5.324 0 0 1-6.546 3.3 5.393 5.393 0 0 1-3.273-6.6 5.182 5.182 0 0 1 9.819 3.3z" class="prefix__cls-6" data-name="Path 7406" transform="translate(410.575 -207.659)"/>
                        <path id="prefix__Path_7407" d="M140.36 578.771a3.17 3.17 0 1 1-5.969-2.136 3.066 3.066 0 0 1 4.043-1.942 3.261 3.261 0 0 1 1.926 4.078z" class="prefix__cls-6" data-name="Path 7407" transform="translate(-2.866 -132.328)"/>
                        <path id="prefix__Path_7408" d="M184.811 571.642a3.657 3.657 0 0 1-4.621 2.331 3.7 3.7 0 0 1-2.31-4.661 3.657 3.657 0 0 1 4.621-2.331 3.554 3.554 0 0 1 2.31 4.661z" class="prefix__cls-6" data-name="Path 7408" transform="translate(37.398 -139.57)"/>
                        <path id="prefix__Path_7409" d="M177.223 661.108a5.324 5.324 0 0 1-6.546 3.3 5.392 5.392 0 0 1-3.273-6.6 5.324 5.324 0 0 1 6.546-3.3 5.146 5.146 0 0 1 3.273 6.6z" class="prefix__cls-6" data-name="Path 7409" transform="translate(27.659 -57.162)"/>
                        <path id="prefix__Path_7410" d="M251.623 741.961a5.324 5.324 0 0 1-6.546 3.3 5.393 5.393 0 0 1-3.273-6.6 5.182 5.182 0 0 1 9.819 3.3z" class="prefix__cls-6" data-name="Path 7410" transform="translate(96.506 19.101)"/>
                        <path id="prefix__Path_7411" d="M314.923 710.161a5.324 5.324 0 0 1-6.546 3.3 5.392 5.392 0 0 1-3.273-6.6 5.058 5.058 0 0 1 6.546-3.107 4.945 4.945 0 0 1 3.273 6.407z" class="prefix__cls-6" data-name="Path 7411" transform="translate(155.081 -10.858)"/>
                        <path id="prefix__Path_7412" d="M352.123 608.761a5.324 5.324 0 0 1-6.546 3.3 5.393 5.393 0 0 1-3.273-6.6 5.182 5.182 0 0 1 9.819 3.3z" class="prefix__cls-6" data-name="Path 7412" transform="translate(189.505 -106.385)"/>
                        <path id="prefix__Path_7413" d="M417.34 577.173a3.783 3.783 0 0 1-4.814 2.33 3.834 3.834 0 0 1-2.31-4.855 3.784 3.784 0 0 1 4.813-2.331 3.836 3.836 0 0 1 2.311 4.856z" class="prefix__cls-6" data-name="Path 7413" transform="translate(252.325 -134.614)"/>
                        <path id="prefix__Path_7414" d="M363.976 683.1a5.058 5.058 0 0 1-6.546 3.107 5.125 5.125 0 0 1-3.081-6.6 5.324 5.324 0 0 1 6.546-3.3 5.417 5.417 0 0 1 3.081 6.793z" class="prefix__cls-6" data-name="Path 7414" transform="translate(200.564 -36.624)"/>
                        <path id="prefix__Path_7415" d="M1007.883 509.841a4.966 4.966 0 0 1-1.925 2.525 4.579 4.579 0 0 1-3.851.777 4.722 4.722 0 0 1-3.273-2.136 5.027 5.027 0 0 1-.578-4.661 4.964 4.964 0 0 1 1.925-2.525 5.17 5.17 0 0 1 7.124 1.36 5.093 5.093 0 0 1 .578 4.66z" class="prefix__cls-7" data-name="Path 7415" transform="translate(796.399 -199.732)"/>
                        <path id="prefix__Path_7416" d="M899.383 595.971a4.967 4.967 0 0 1-1.925 2.525 5.17 5.17 0 0 1-7.124-1.359 5.027 5.027 0 0 1-.578-4.661 4.966 4.966 0 0 1 1.925-2.525 4.579 4.579 0 0 1 3.851-.777 4.723 4.723 0 0 1 3.273 2.136 5.743 5.743 0 0 1 .578 4.661z" class="prefix__cls-6" data-name="Path 7416" transform="translate(695.997 -118.648)"/>
                        <path id="prefix__Path_7417" d="M988.983 681.771a4.965 4.965 0 0 1-1.925 2.525 4.579 4.579 0 0 1-3.851.777 4.723 4.723 0 0 1-3.273-2.136 5.028 5.028 0 0 1-.577-4.661 4.966 4.966 0 0 1 1.925-2.525 4.58 4.58 0 0 1 3.851-.777 4.723 4.723 0 0 1 3.273 2.136 6.5 6.5 0 0 1 .577 4.661z" class="prefix__cls-6" data-name="Path 7417" transform="translate(778.909 -37.818)"/>
                        <path id="prefix__Path_7418" d="M1032.094 623.873a3.081 3.081 0 0 1-1.54 1.942 4.25 4.25 0 0 1-3.081.583 3.782 3.782 0 0 1-2.5-1.748 4.09 4.09 0 0 1-.578-3.69 3.081 3.081 0 0 1 1.541-1.942 4.25 4.25 0 0 1 3.081-.583 3.78 3.78 0 0 1 2.5 1.748 3.287 3.287 0 0 1 .577 3.69z" class="prefix__cls-6" data-name="Path 7418" transform="translate(820.707 -91.007)"/>
                        <path id="prefix__Path_7419" d="M1108.183 508.171a4.966 4.966 0 0 1-1.925 2.525 4.579 4.579 0 0 1-3.851.777 4.722 4.722 0 0 1-3.273-2.136 5.028 5.028 0 0 1-.578-4.661 4.966 4.966 0 0 1 1.926-2.525 4.579 4.579 0 0 1 3.851-.777 4.722 4.722 0 0 1 3.273 2.136 6.5 6.5 0 0 1 .577 4.661z" class="prefix__cls-6" data-name="Path 7419" transform="translate(889.213 -201.364)"/>
                        <path id="prefix__Path_7420" d="M980.683 353.771a4.966 4.966 0 0 1-1.925 2.525 4.579 4.579 0 0 1-3.851.777 4.722 4.722 0 0 1-3.273-2.136 5.027 5.027 0 0 1-.578-4.661 4.966 4.966 0 0 1 1.926-2.525 4.578 4.578 0 0 1 3.85-.777 4.723 4.723 0 0 1 3.273 2.136 5.028 5.028 0 0 1 .578 4.661z" class="prefix__cls-6" data-name="Path 7420" transform="translate(771.229 -346.822)"/>
                        <path id="prefix__Path_7421" d="M915.383 657.141a4.967 4.967 0 0 1-1.925 2.525 4.58 4.58 0 0 1-3.851.777 4.722 4.722 0 0 1-3.273-2.136 5.028 5.028 0 0 1-.578-4.661 4.966 4.966 0 0 1 1.925-2.525 5.17 5.17 0 0 1 7.124 1.359 5.028 5.028 0 0 1 .578 4.661z" class="prefix__cls-6" data-name="Path 7421" transform="translate(710.803 -60.963)"/>
                        <path id="prefix__Path_7422" d="M932.127 557.4a5.017 5.017 0 0 1-2.118 2.719 6.012 6.012 0 0 1-4.043.971 4.936 4.936 0 0 1-3.466-2.33 5.894 5.894 0 0 1-.77-5.049 5.015 5.015 0 0 1 2.118-2.719 5.51 5.51 0 0 1 7.7 1.359 5.838 5.838 0 0 1 .579 5.049z" class="prefix__cls-6" data-name="Path 7422" transform="translate(725.634 -155.427)"/>
                        <path id="prefix__Path_7423" d="M911.383 487.141a4.966 4.966 0 0 1-1.925 2.525 4.579 4.579 0 0 1-3.851.777 4.723 4.723 0 0 1-3.273-2.136 5.028 5.028 0 0 1-.578-4.661 4.967 4.967 0 0 1 1.925-2.525 5.17 5.17 0 0 1 7.124 1.36 5.093 5.093 0 0 1 .578 4.66z" class="prefix__cls-7" data-name="Path 7423" transform="translate(707.101 -221.117)"/>
                        <path id="prefix__Path_7424" d="M779.683 449.341a4.967 4.967 0 0 1-1.926 2.525 5.17 5.17 0 0 1-7.124-1.359 5.028 5.028 0 0 1-.578-4.661 4.966 4.966 0 0 1 1.926-2.525 5.17 5.17 0 0 1 7.124 1.359 6.627 6.627 0 0 1 .578 4.661z" class="prefix__cls-7" data-name="Path 7424" transform="translate(585.231 -256.728)"/>
                        <path id="prefix__Path_7425" d="M663.583 582.071a4.966 4.966 0 0 1-1.925 2.525 4.579 4.579 0 0 1-3.851.777 4.724 4.724 0 0 1-3.273-2.136 5.028 5.028 0 0 1-.578-4.661 4.966 4.966 0 0 1 1.925-2.525 4.579 4.579 0 0 1 3.851-.777 4.723 4.723 0 0 1 3.273 2.136 6.5 6.5 0 0 1 .578 4.661z" class="prefix__cls-6" data-name="Path 7425" transform="translate(477.796 -131.743)"/>
                        <path id="prefix__Path_7426" d="M477.442 602.5a3.1 3.1 0 0 1-1.348 1.748 3.289 3.289 0 0 1-4.813-.971 3.6 3.6 0 0 1-.385-3.107 3.1 3.1 0 0 1 1.348-1.748 3.319 3.319 0 0 1 2.7-.583 4.614 4.614 0 0 1 2.31 1.36 4.941 4.941 0 0 1 .188 3.301z" class="prefix__cls-6" data-name="Path 7426" transform="translate(308.514 -110.414)"/>
                        <path id="prefix__Path_7427" d="M451.283 517.541a4.966 4.966 0 0 1-1.925 2.525 4.58 4.58 0 0 1-3.851.777 4.723 4.723 0 0 1-3.273-2.136 5.028 5.028 0 0 1-.578-4.661 4.966 4.966 0 0 1 1.925-2.525 5.17 5.17 0 0 1 7.124 1.359 5.028 5.028 0 0 1 .578 4.661z" class="prefix__cls-6" data-name="Path 7427" transform="translate(281.341 -192.478)"/>
                        <path id="prefix__Path_7428" d="M341.583 511.571a4.966 4.966 0 0 1-1.925 2.525 4.579 4.579 0 0 1-3.851.777 4.723 4.723 0 0 1-3.273-2.136 5.027 5.027 0 0 1-.578-4.661 4.965 4.965 0 0 1 1.925-2.525 4.579 4.579 0 0 1 3.851-.777 4.722 4.722 0 0 1 3.273 2.136 5.027 5.027 0 0 1 .578 4.661z" class="prefix__cls-6" data-name="Path 7428" transform="translate(179.828 -198.16)"/>
                        <path id="prefix__Path_7429" d="M272.583 646.571a4.966 4.966 0 0 1-1.925 2.525 5.17 5.17 0 0 1-7.124-1.359 5.027 5.027 0 0 1-.578-4.661 4.965 4.965 0 0 1 1.925-2.525 4.58 4.58 0 0 1 3.851-.777 4.722 4.722 0 0 1 3.273 2.136 5.093 5.093 0 0 1 .578 4.661z" class="prefix__cls-6" data-name="Path 7429" transform="translate(115.978 -70.979)"/>
                        <path id="prefix__Path_7430" d="M880.093 527.085a4.44 4.44 0 0 1-1.348 1.942 3.7 3.7 0 0 1-5.2-.971 3.284 3.284 0 0 1-.385-3.5 4.439 4.439 0 0 1 1.348-1.942 3.768 3.768 0 0 1 2.888-.583 4.276 4.276 0 0 1 2.5 1.554 5.38 5.38 0 0 1 .197 3.5z" class="prefix__cls-6" data-name="Path 7430" transform="translate(680.63 -181.824)"/>
                        <path id="prefix__Path_7431" d="M1056.457 383.757a9.121 9.121 0 0 1-1.155 1.748 2.9 2.9 0 0 1-2.5.583 3.656 3.656 0 0 1-2.118-1.359 3.191 3.191 0 0 1-.385-2.913 2.592 2.592 0 0 1 1.348-1.554 3.542 3.542 0 0 1 4.621.777 3.153 3.153 0 0 1 .189 2.718z" class="prefix__cls-6" data-name="Path 7431" transform="translate(844.67 -315.826)"/>
                        <path id="prefix__Path_7432" d="M907.786 434.315a5.508 5.508 0 0 1-1.54 2.136 4.6 4.6 0 0 1-3.08.777 3.741 3.741 0 0 1-2.7-1.748 4.608 4.608 0 0 1-.578-3.884 5.508 5.508 0 0 1 1.54-2.136 4.307 4.307 0 0 1 5.969 1.165 4.772 4.772 0 0 1 .389 3.69z" class="prefix__cls-7" data-name="Path 7432" transform="translate(705.499 -269.668)"/>
                        <path id="prefix__Path_7433" d="M763.883 518.241a4.966 4.966 0 0 1-1.926 2.525 5.17 5.17 0 0 1-7.124-1.359 5.027 5.027 0 0 1-.578-4.661 4.966 4.966 0 0 1 1.925-2.525 5.17 5.17 0 0 1 7.124 1.359 5.656 5.656 0 0 1 .579 4.661z" class="prefix__cls-6" data-name="Path 7433" transform="translate(570.61 -191.818)"/>
                        <path id="prefix__Path_7434" d="M667.386 507.973a5.505 5.505 0 0 1-1.54 2.136 4.249 4.249 0 0 1-3.08.583 3.743 3.743 0 0 1-2.7-1.748 4.284 4.284 0 0 1-.577-3.69 5.507 5.507 0 0 1 1.54-2.136 4.431 4.431 0 0 1 3.081-.583 3.742 3.742 0 0 1 2.7 1.748 4.089 4.089 0 0 1 .576 3.69z" class="prefix__cls-6" data-name="Path 7434" transform="translate(483.041 -200.194)"/>
                        <path id="prefix__Path_7435" d="M720.786 613.873a4.071 4.071 0 0 1-1.54 2.136 4.25 4.25 0 0 1-3.081.582 3.743 3.743 0 0 1-2.7-1.748 4.283 4.283 0 0 1-.577-3.69 4.07 4.07 0 0 1 1.54-2.136 4.431 4.431 0 0 1 3.08-.583 3.741 3.741 0 0 1 2.7 1.748 4.09 4.09 0 0 1 .578 3.691z" class="prefix__cls-6" data-name="Path 7435" transform="translate(532.456 -100.428)"/>
                        <path id="prefix__Path_7436" d="M560.95 632.472a2.168 2.168 0 0 1-1.348 1.554 2.9 2.9 0 0 1-2.5.583 3.154 3.154 0 0 1-2.118-1.359 3.192 3.192 0 0 1-.385-2.913 2.468 2.468 0 0 1 1.348-1.748 3.345 3.345 0 0 1 4.621.777 3.521 3.521 0 0 1 .382 3.106z" class="prefix__cls-6" data-name="Path 7436" transform="translate(385.967 -81.933)"/>
                        <path id="prefix__Path_7437" d="M974.083 461.331a4.967 4.967 0 0 1-1.925 2.525 5.17 5.17 0 0 1-7.124-1.359 5.027 5.027 0 0 1-.578-4.661 4.964 4.964 0 0 1 1.926-2.525 5.38 5.38 0 0 1 3.85-.777 4.722 4.722 0 0 1 3.273 2.136 5.027 5.027 0 0 1 .578 4.661z" class="prefix__cls-7" data-name="Path 7437" transform="translate(765.122 -245.413)"/>
                    </g>
                    <g id="prefix__Group_4010" data-name="Group 4010" transform="translate(150.734)">
                        <path id="prefix__Path_7438" d="M82.957 643.674a10 10 0 1 1-6.157-12.818 10.011 10.011 0 0 1 6.157 12.818zm-18.483-6.409a9.852 9.852 0 0 0 5.969 12.429 9.725 9.725 0 0 0 12.322-6.02 9.852 9.852 0 0 0-5.965-12.429 9.648 9.648 0 0 0-12.327 6.02z" class="prefix__cls-6" data-name="Path 7438" transform="translate(-63.489 -74.892)"/>
                        <path id="prefix__Path_7439" d="M370.957 687.011a10 10 0 1 1-18.869-6.6 9.856 9.856 0 0 1 12.707-6.215 10.221 10.221 0 0 1 6.162 12.815zm-18.676-6.411a9.852 9.852 0 0 0 5.969 12.429 9.725 9.725 0 0 0 12.322-6.021 9.852 9.852 0 0 0-5.969-12.429 9.725 9.725 0 0 0-12.322 6.021z" class="prefix__cls-6" data-name="Path 7439" transform="translate(203.016 -34.136)"/>
                        <path id="prefix__Path_7440" d="M530.457 714.674a10 10 0 1 1-6.161-12.818 10.011 10.011 0 0 1 6.161 12.818zm-18.483-6.409a9.852 9.852 0 0 0 5.969 12.43 9.725 9.725 0 0 0 12.322-6.021 9.852 9.852 0 0 0-5.969-12.429 9.648 9.648 0 0 0-12.323 6.02z" class="prefix__cls-6" data-name="Path 7440" transform="translate(350.612 -8.004)"/>
                        <path id="prefix__Path_7441" d="M458.257 521.511a10 10 0 1 1-18.869-6.6 9.857 9.857 0 0 1 12.707-6.214 9.984 9.984 0 0 1 6.162 12.814zm-18.484-6.411a9.852 9.852 0 0 0 5.969 12.43 9.725 9.725 0 0 0 12.322-6.021 9.852 9.852 0 0 0-5.969-12.429 9.648 9.648 0 0 0-12.322 6.02z" class="prefix__cls-6" data-name="Path 7441" transform="translate(283.801 -190.051)"/>
                        <path id="prefix__Path_7442" d="M597.957 505.311a10 10 0 1 1-18.868-6.6 9.856 9.856 0 0 1 12.707-6.215 10.306 10.306 0 0 1 6.161 12.815zm-18.676-6.411a9.852 9.852 0 0 0 5.969 12.429 9.725 9.725 0 0 0 12.322-6.021 9.852 9.852 0 0 0-5.968-12.429 9.725 9.725 0 0 0-12.323 6.021z" class="prefix__cls-6" data-name="Path 7442" transform="translate(413.074 -205.313)"/>
                        <path id="prefix__Path_7443" d="M670.556 585.974a10 10 0 1 1-6.161-12.818 10.391 10.391 0 0 1 6.161 12.818zm-18.676-6.409a9.852 9.852 0 0 0 5.969 12.429 9.725 9.725 0 0 0 12.322-6.02 9.852 9.852 0 0 0-5.969-12.429 9.725 9.725 0 0 0-12.322 6.02z" class="prefix__cls-6" data-name="Path 7443" transform="translate(480.256 -129.25)"/>
                        <path id="prefix__Path_7444" d="M786.357 453.274a10 10 0 1 1-6.161-12.818 10.011 10.011 0 0 1 6.161 12.818zm-18.484-6.409a9.852 9.852 0 0 0 5.969 12.429 9.725 9.725 0 0 0 12.322-6.021 9.852 9.852 0 0 0-5.969-12.429 9.648 9.648 0 0 0-12.322 6.021z" class="prefix__cls-6" data-name="Path 7444" transform="translate(587.413 -254.264)"/>
                        <path id="prefix__Path_7445" d="M918.32 491.174a10.011 10.011 0 0 1-12.707 6.215 10.141 10.141 0 0 1-6.161-12.818 10 10 0 1 1 18.869 6.6zm-18.483-6.6A9.852 9.852 0 0 0 905.806 497a9.725 9.725 0 0 0 12.322-6.021 9.852 9.852 0 0 0-5.969-12.429 9.648 9.648 0 0 0-12.322 6.021z" class="prefix__cls-6" data-name="Path 7445" transform="translate(709.597 -218.559)"/>
                        <path id="prefix__Path_7446" d="M922.356 661.074a10 10 0 1 1-6.161-12.818 10.011 10.011 0 0 1 6.161 12.818zm-18.483-6.409a9.852 9.852 0 0 0 5.968 12.429 9.725 9.725 0 0 0 12.322-6.02 9.852 9.852 0 0 0-5.969-12.43 9.648 9.648 0 0 0-12.321 6.021z" class="prefix__cls-6" data-name="Path 7446" transform="translate(713.263 -58.499)"/>
                        <path id="prefix__Path_7447" d="M987.656 357.674a10 10 0 1 1-6.161-12.818 10.141 10.141 0 0 1 6.161 12.818zm-18.676-6.409a9.852 9.852 0 0 0 5.969 12.429 9.725 9.725 0 0 0 12.322-6.02 9.852 9.852 0 0 0-5.969-12.429 9.725 9.725 0 0 0-12.322 6.02z" class="prefix__cls-6" data-name="Path 7447" transform="translate(773.689 -344.328)"/>
                        <path id="prefix__Path_7448" d="M1014.857 513.874a10 10 0 1 1-6.161-12.818 10.141 10.141 0 0 1 6.161 12.818zm-18.676-6.6a9.852 9.852 0 0 0 5.969 12.429 9.724 9.724 0 0 0 12.322-6.021 9.851 9.851 0 0 0-5.968-12.429 9.725 9.725 0 0 0-12.324 6.018z" class="prefix__cls-6" data-name="Path 7448" transform="translate(798.859 -197.174)"/>
                        <path id="prefix__Path_7449" d="M1115.156 512.074a10 10 0 1 1-6.156-12.818 10.392 10.392 0 0 1 6.156 12.818zm-18.676-6.409a9.852 9.852 0 0 0 5.969 12.429 9.725 9.725 0 0 0 12.323-6.02 9.852 9.852 0 0 0-5.969-12.429 9.725 9.725 0 0 0-12.323 6.02z" class="prefix__cls-6" data-name="Path 7449" transform="translate(891.673 -198.87)"/>
                        <path id="prefix__Path_7450" d="M279.657 650.374a10 10 0 1 1-6.161-12.818 10.011 10.011 0 0 1 6.161 12.818zm-18.676-6.6a9.852 9.852 0 0 0 5.969 12.429 9.725 9.725 0 0 0 12.322-6.02 9.852 9.852 0 0 0-5.972-12.433 9.725 9.725 0 0 0-12.319 6.021z" class="prefix__cls-6" data-name="Path 7450" transform="translate(118.531 -68.58)"/>
                        <path id="prefix__Path_7451" d="M348.557 515.474a10 10 0 1 1-6.161-12.818 10.141 10.141 0 0 1 6.161 12.818zm-18.676-6.409a9.852 9.852 0 0 0 5.969 12.429 9.725 9.725 0 0 0 12.322-6.021 9.852 9.852 0 0 0-5.969-12.429 9.725 9.725 0 0 0-12.322 6.021z" class="prefix__cls-6" data-name="Path 7451" transform="translate(182.288 -195.667)"/>
                        <path id="prefix__Path_7452" d="M184.157 665.174A10 10 0 1 1 178 652.356a10.141 10.141 0 0 1 6.157 12.818zm-18.676-6.6A9.852 9.852 0 0 0 171.449 671a9.725 9.725 0 0 0 12.322-6.021 9.852 9.852 0 0 0-5.969-12.429 9.725 9.725 0 0 0-12.321 6.021z" class="prefix__cls-6" data-name="Path 7452" transform="translate(30.158 -54.637)"/>
                    </g>
                </g>
            </g>
            <g id="prefix__Group_4019" clip-path="url(#prefix__clip-path-2)" data-name="Group 4019">
                <g id="prefix__Group_4015" data-name="Group 4015" transform="translate(-1160.048 216.909)">
                    <path id="prefix__Path_7453" d="M2432.869 738.951l-1.039.349-299.361-208.7.519-.873-.866.7-218.851 28.467 52.635-122.252h-.346l-.693.524L1812.5 571.815l-.693-.175-.866.175 1.558.7 55.925 90.292-33.07 75.447-.173.175.173.175 27.356 183.377-.173.175-94.708 167.659-181.279-22.7-199.802-193.338-.346-.349-12.812 187.394-95.747-47.154v-.175h-.346v.175l-147.863 42.613-38.437-161.9h-.173L806.9 841.991v-.174l-.346.174-.346-.174v.349L415.6 1007.9 255.961 685.16h-.173L6.983 650.58l2.251-186.346-.519-1.921v.873l-94.882 172.9-215.388-33.186-49.345-123.122-.173-.7 37.918-132.378v-.7h-.173l-182.145 27.419v-.175L-666.537 124.2l.173 1.048 54.193 352.958h.171l145.958 58.681 19.911 109.852-51.6 184.949L-670 932.981l.346.175 188.378 93.086 21.3 81.908v.349l.346-.175 270.447 64.444-.173.349.346-.175-17.314 300.389h.173l224.045 76.844-.173-.349 77.048-92.038 36.533 66.191.173-.349 132.45-267.73 304.556 259.872-.346 1.222.693-1.048 260.058-126.966v-.175l-19.046-240.137 234.434-67.413 139.379 204.509.173.7 56.271-163.119 124.835 64.619 125.874-68.461 203.614 100.421.173.175.173-.349 148.382-119.981 179.894 22.529.866 1.048-.346-1.223 130.549-130.285 125.7 256.2.173.873.173-.873 57.31-192.459 101.115 35.278-.693-.7-85.186-85.576 78.952-264.762zm-246.38 98.674l-174.873-124.172L2132.122 531.3zm-373.467-265.286l99.383-12.924-27.529 64.095-72.027-50.822h.693zm72.027 51.87l56.271 39.819-50.211 35.1-22.682-36.5zm56.444 40.168l69.257 49.075-57.31 86.624-62.331-100.6zm22.855 231.055l-100.941 26.2 89.86-120.33zm11.427 97.277L2022.7 1120.9l-80.857-100.77zm-34.109 27.07l-77.74-96.753 111.674 69.335zm-77.394-97.279l106.309 25.324 5.194 44.01zm-.346-.524l100.6-26.022 6.06 51.52zm89.86-121.2l.173-.175 57.31-86.8 175.046 124.173-221.448 57.458zM2011.1 713.1l-69.083-49.075 189.244-132.556zm119.987-182.155l-189.59 132.9-56.447-39.985 27.7-64.444zm-166.389-93.086l-52.116 121.2-99.732 12.931zm-151.845 135.35l71.681 50.822-16.448 38.247zm55.405 90.117l22.508 36.152-54.54 38.247zM1890.936 700l61.985 100.072-116.87-61.65zm-55.059 38.771l117.39 62-90.207 120.68zm-462.288 322.57l-8.657 125.57-86.744-172.724zm-241.879 5.239l-12.986-6.637 10.735-3.143zm-40.861-171.851l38.438 161.547-11.081 3.144-135.916-70.378-174.7-146.527zM806.9 842.69l174.7 146.527-172.8 33.183zm1.385 179.71l-53.5 10.3 51.6-188.966zM516.02 1129.282l-67.525-56.061 230.8-25.5zm164.138-81.559L636.7 1229.529l-120.333-99.9zM515.5 1129.457l-47.96 24.1-19.219-79.813zm-48.306 24.276l-52.289 26.2-113.235-122.779 146.3 16.242zm.173.524l27.01 111.773-79.126-85.751zm.346-.349l48.307-24.1 120.68 100.245-9.7 40.692-131.934-4.191zm169.332 76.492l51.077 42.439-60.773-1.921zm.173-.524l43.112-180.932 8.311 223.546zm43.459-182.155l57.137 44.709-49 179.011zm57.656 45.058l71.161 55.537-120.16 123.823zm-.173-.7l-57.137-44.709 73.066-13.972zm-57.137-45.058l125.009-203.283-51.769 189.141zM806.032 842.69l-125.7 204.335-.173-.175v.349l-232.183 25.848-32.031-64.619zm-358.577 230.182L301.843 1056.8l113.757-48.372zm-32.031-64.793l-114.273 48.551-44.844-370.073zm-114.793 48.2L155.539 940.84l100.249-254.807zM-316.1 784.708l3.982-50.3 126.047 81.559zm130.9 31.96l-142.5 111.6 11.6-143.209zm-127.259-83.131l-42.766-27.594 53.154-101.469zm0 .524l-4.155 50.472-70.815-17.115 32.031-61.126zm-4.155 51l-11.6 143.558-90.034-15.893 30.646-144.781zm-102.158 127.487l-96.44-16.941L-388.3 768.291zm.346.524l89.86 15.893-93.15 126.967-24.413-12.051zm89.86 16.766l-35.667 154.386-56.964-28.118zm.693-.349l71.681 126.094-107.521 28.642zm.346-.175l223.179 85.751-151.5 40.518zm0-.524l142.669-111.773 81.9 196.65-.693 1.223zm442.377 114.567L8.888 824.876 155.019 941.19zm40.515-101.993l144.746 115.091-184.911-12.923zM114.5 1043.532l-217.119-28.467.519-.873v-.175l-.173-.349L8.542 824.527zm-217.119-28.118l216.6 28.467L8.888 1088.59zm110.988 73.351l-70.469 29.864-41.035-103.041zm-.347-264.937l-192.187-7.51L6.464 651.279zm-.173.524l-110.637 188.966-81.723-196.3zm-70.3 294.626l-126.22 53.791 85.359-156.482zm.173.349l78.779 197.7-205.173-143.907zm78.953 198.4l-91.592 63.92-113.581-207.828zm-78.433-198.571l70.642-30.039 149.767 98.151L17.2 1317.2zm71.161-30.214l105.443-44.884 78.26 111.6L159 1186.915zM193.284 1156l69.257 98.849-103.193-67.759zm-77.914-111.944l185.088 13.1-107 98.325zm39.823-103.39L8.542 824l246.9-138.144zM7.33 651.1l247.939 34.23-246.9 138.324L6.81 651.279zm1.385-186.7L6.637 650.231l-.519.175-91.765-14.146zM-85.82 636.783L6.291 650.93l-190.11 164.515zm-.519 0l-98.344 179.36L-301.208 603.6zm-99.037 179.011l-126.566-82.083 10.562-129.761zm-170.2-110.2l-90.38-58.506 46.748-82.782 97.132 39.12zm-17.834-186.7l70.988 83.83-96.44-38.771zm-.173-.873L-494.434 375.34l142.5 104.263zm71.161 84l-70.815-83.655 21.816-38.422zm-11.254-255.156l-37.918 132.206-143.533-104.954zm-352.17-220.227l169.159 246.424-.519-.349 1.039 1.223-116 103.914zm54.02 351.735l115.832-103.914 29.434 162.42zM-495.3 374.816l121.545 143.733-25.625 45.233-66.659-26.721zm29.434 162.769l66.313 26.721-46.575 82.433zm19.738 110.026l90.38 58.506-32.2 61.3-109.6 64.444zm-51.6 184.949l108.387-63.745-125.87 126.268zm-.519.349l-17.487 62.7-152.538 37.374zm-170.891 100.6l153.4-37.549 33.936 130.111zm153.923-37.549l96.44 17.115-27.7 130.635-34.8-17.115zm34.109 131.159l34.455 17.115-13.505 63.571zm34.975 17.29l24.24 12.051-37.569 51.34zm24.586 12.051l56.79 28.118-94.708 23.577zm-37.4 52.219l94.881-23.752 172.968 87.5zm95.574-23.926l107.348-28.642 66.14 116.488zm107.867-28.816l151.845-40.518.173.349-85.705 157.006zm66.486 118.06l113.754 208-130.895 91.339zm-16.968 299.691l130.895-91.339 91.592 167.485zM17.026 1550l-91.765-167.834 91.765-63.92 77.048 139.716zm113.927-26.546l-36.187-65.492 167.774-200.315zm-36.533-66.013L17.372 1317.9l245.342-61.65zm-76.529-140.066L159 1187.614l103.885 68.112zm245.515-62.175l-69.776-99.548 106.828-98.325zm37.572-197.873L414.212 1180.1l-150.46 75.272zM263.925 1255.9l150.806-75.447 79.819 86.447 73.758 248.171zm304.9 259l-73.758-247.821 131.761 4.192zm58.522-243.63l61.465 1.921.346.349v-.349l119.121-122.95-238.932 364.134zm201.193 117.36l-259.193 126.618 240.32-366.231zm-19.046-240.661l-70.988-55.537 16.1-59.03 53.674-10.3zm-.693-125.046l172.622-33.183-171.236 158.229zm1.9 125.046l171.41-158.228 62.158 91.165zm172.1-158.054l134.7 69.683-72.893 20.957zm62.158 91.165l73.239-21.132 13.851 7.161 51.769 217.258zm139.206 203.636l-51.765-217.258 107.521 55.712zm55.752-162.071l-107.687-55.885-2.424-10.3 147.517-42.439zm.519.175l37.4-108.455 86.744 172.724zm125.008 64.444l8.657-125.745 116.524 57.458zm8.665-126.264l12.813-186.521 199.113 192.634-94.882 51.695zm117.563 57.982l94.535-51.52 107.867 151.417zm203.1 100.072l-108.04-151.592 180.933 22.7zm.866-.524l72.546-128.364 74.624 9.431zm147.69-119.283l-74.97-9.431 94.535-167.485 78.26 97.626zm.693 0l97.652-78.94 81.376 101.469zm179.548 22.355l-47.441-129.412-5.2-44.19 182.837 43.661zm130.722-130.46L1971.1 947.477l-6.06-51.695 221.621-57.458zm32.544-151.942l23.2 101.643-55.235 50.121zm64.409 63.92l-41.034 37.2-23.2-101.643zm-64.062-64.968l243.437-97.8-179.029 162.416zm40 178.487l-72.382-25.152 55.232-50.123zm-72.373-24.8l72.546 25.324 52.116 228.959zm125.528 255.331l-52.462-229.833 109.6 38.073zm57.136-192.11l-109.773-38.249-17.314-75.971 41.208-37.374 100.768 101.294zm99.729 34.58l-99.21-34.58 14.89-50.123zm-84.493-85.4l-100.6-100.945 179.375-162.769zm-165.7-166.611l-54.54-306.5 298.842 208.526z" class="prefix__cls-11" data-name="Path 7453" transform="translate(670 -124.2)"/>
                    <g id="prefix__Group_4013" data-name="Group 4013" transform="translate(1343.484 305.673)">
                        <path id="prefix__Path_7454" d="M118.16 651.085a7.015 7.015 0 1 0-10.388 9.431 6.872 6.872 0 0 0 9.869.524 7.016 7.016 0 0 0 .519-9.955z" class="prefix__cls-6" data-name="Path 7454" transform="translate(-105.945 -38.299)"/>
                        <path id="prefix__Path_7455" d="M191.06 533.611a6.872 6.872 0 0 0-9.869-.524 7.008 7.008 0 0 0-.519 9.955 6.872 6.872 0 0 0 9.869.524 7.167 7.167 0 0 0 .519-9.955z" class="prefix__cls-12" data-name="Path 7455" transform="translate(-52.625 -126.033)"/>
                        <path id="prefix__Path_7456" d="M355.26 563.611a6.872 6.872 0 0 0-9.869-.524 7.008 7.008 0 0 0-.519 9.955 6.865 6.865 0 0 0 9.869.524 7.015 7.015 0 0 0 .519-9.955z" class="prefix__cls-6" data-name="Path 7456" transform="translate(67.473 -103.64)"/>
                        <path id="prefix__Path_7457" d="M988.266 531.226a7.728 7.728 0 0 0-3.809-2.27 7.2 7.2 0 0 0-5.368 1.044 7.737 7.737 0 0 0-3.117 4.541 6.947 6.947 0 0 0 1.558 6.112 7.731 7.731 0 0 0 3.809 2.271 6.942 6.942 0 0 0 8.311-5.414 6.853 6.853 0 0 0-1.384-6.284z" class="prefix__cls-12" data-name="Path 7457" transform="translate(530.28 -127.84)"/>
                        <path id="prefix__Path_7458" d="M785.392 474.246a7.728 7.728 0 0 0-3.809-2.27 6.942 6.942 0 0 0-8.311 5.414A6.554 6.554 0 0 0 775 483.5a6.394 6.394 0 0 0 3.809 2.1 7.518 7.518 0 0 0 5.367-1.048 6.821 6.821 0 0 0 2.943-4.541 7.564 7.564 0 0 0-1.727-5.765z" class="prefix__cls-6" data-name="Path 7458" transform="translate(382.023 -170.407)"/>
                        <path id="prefix__Path_7459" d="M860.292 301.626a7.729 7.729 0 0 0-3.809-2.27 6.778 6.778 0 0 0-5.194 1.048 7.736 7.736 0 0 0-3.117 4.541 6.554 6.554 0 0 0 1.732 6.113 7.727 7.727 0 0 0 3.809 2.27 6.778 6.778 0 0 0 5.194-1.048 7.735 7.735 0 0 0 3.116-4.541 7.181 7.181 0 0 0-1.731-6.113z" class="prefix__cls-7" data-name="Path 7459" transform="translate(436.806 -299.225)"/>
                        <path id="prefix__Path_7460" d="M954.768 355.6a6.342 6.342 0 0 0-2.943-1.746 5.772 5.772 0 0 0-4.156.7 5.638 5.638 0 0 0-2.424 3.493 6.191 6.191 0 0 0 1.212 4.89 5.583 5.583 0 0 0 2.943 1.746 5.772 5.772 0 0 0 4.156-.7 6.155 6.155 0 0 0 2.424-3.493 5.125 5.125 0 0 0-1.212-4.89z" class="prefix__cls-7" data-name="Path 7460" transform="translate(507.853 -258.546)"/>
                        <path id="prefix__Path_7461" d="M1129.766 474.926a7.731 7.731 0 0 0-3.809-2.27 7.361 7.361 0 0 0-5.368 1.048 7.738 7.738 0 0 0-3.116 4.541 7.086 7.086 0 0 0 1.558 6.113 7.728 7.728 0 0 0 3.809 2.27 7.2 7.2 0 0 0 5.367-1.048 7.9 7.9 0 0 0 3.117-4.366 6.93 6.93 0 0 0-1.558-6.288z" class="prefix__cls-12" data-name="Path 7461" transform="translate(633.775 -169.865)"/>
                        <path id="prefix__Path_7462" d="M1042.266 766.026a6.643 6.643 0 0 0-3.809-2.27 7.2 7.2 0 0 0-5.367 1.048 7.736 7.736 0 0 0-3.117 4.541 6.948 6.948 0 0 0 1.558 6.113 7.732 7.732 0 0 0 3.809 2.27 7.2 7.2 0 0 0 5.367-1.048 7.737 7.737 0 0 0 3.117-4.541 7.087 7.087 0 0 0-1.558-6.113z" class="prefix__cls-12" data-name="Path 7462" transform="translate(569.776 47.427)"/>
                        <path id="prefix__Path_7463" d="M771.793 379.126a7.73 7.73 0 0 0-3.809-2.27 6.929 6.929 0 0 0-5.194 1.048 7.736 7.736 0 0 0-3.116 4.541 6.947 6.947 0 0 0 1.558 6.113 7.728 7.728 0 0 0 3.809 2.27 6.861 6.861 0 0 0 8.311-5.414 7.167 7.167 0 0 0-1.559-6.288z" class="prefix__cls-7" data-name="Path 7463" transform="translate(372.075 -241.375)"/>
                        <path id="prefix__Path_7464" d="M854.058 509.726a6.216 6.216 0 0 0-3.982-2.27 8.265 8.265 0 0 0-5.714 1.048 7.043 7.043 0 0 0-3.29 4.715 7.72 7.72 0 0 0 1.731 6.637 7.321 7.321 0 0 0 12.812-3.318 7.251 7.251 0 0 0-1.557-6.812z" class="prefix__cls-6" data-name="Path 7464" transform="translate(431.613 -143.889)"/>
                        <path id="prefix__Path_7465" d="M866.465 619.626a7.73 7.73 0 0 0-3.809-2.27 7.2 7.2 0 0 0-5.367 1.048 7.736 7.736 0 0 0-3.117 4.541 6.554 6.554 0 0 0 1.731 6.113 7.728 7.728 0 0 0 3.809 2.27 6.942 6.942 0 0 0 8.311-5.414 6.689 6.689 0 0 0-1.558-6.288z" class="prefix__cls-12" data-name="Path 7465" transform="translate(441.195 -61.854)"/>
                        <path id="prefix__Path_7466" d="M704.093 749.746a8.577 8.577 0 0 0-3.809-2.27A7.055 7.055 0 0 0 693.531 759a7.728 7.728 0 0 0 3.809 2.27 6.943 6.943 0 0 0 8.311-5.414 7.228 7.228 0 0 0-1.558-6.11z" class="prefix__cls-12" data-name="Path 7466" transform="translate(322.558 35.24)"/>
                        <path id="prefix__Path_7467" d="M463.266 631.926a7.731 7.731 0 0 0-3.809-2.27 7.36 7.36 0 0 0-5.367 1.048 7.737 7.737 0 0 0-3.117 4.541 6.948 6.948 0 0 0 1.558 6.113 7.73 7.73 0 0 0 3.809 2.27 6.93 6.93 0 0 0 5.194-1.048 7.737 7.737 0 0 0 3.117-4.541 6.514 6.514 0 0 0-1.385-6.113z" class="prefix__cls-12" data-name="Path 7467" transform="translate(146.287 -52.672)"/>
                        <path id="prefix__Path_7468" d="M190.193 709.44a4.751 4.751 0 0 0-2.6-1.4 4.806 4.806 0 0 0-4.5 7.859 4.75 4.75 0 0 0 2.6 1.4 4.5 4.5 0 0 0 3.636-.7 5.206 5.206 0 0 0 2.078-2.969 5.268 5.268 0 0 0-1.214-4.19z" class="prefix__cls-6" data-name="Path 7468" transform="translate(-50.373 5.863)"/>
                        <path id="prefix__Path_7469" d="M798.984 579.711a4.489 4.489 0 0 0-2.77-1.572 5.146 5.146 0 0 0-6.06 4.017 4.912 4.912 0 0 0 1.212 4.541 4.489 4.489 0 0 0 2.77 1.572 5.33 5.33 0 0 0 3.982-.7 5.042 5.042 0 0 0 2.251-3.318 7.385 7.385 0 0 0-1.385-4.54z" class="prefix__cls-6" data-name="Path 7469" transform="translate(394.402 -91.098)"/>
                        <path id="prefix__Path_7470" d="M1130.346 676.224a4.925 4.925 0 0 0-2.424-1.4 4.84 4.84 0 0 0-3.463.7 4.343 4.343 0 0 0-1.9 2.794 4.4 4.4 0 0 0 1.039 4.017 4.925 4.925 0 0 0 2.424 1.4 4.537 4.537 0 0 0 5.367-3.493 4.284 4.284 0 0 0-1.043-4.018z" class="prefix__cls-6" data-name="Path 7470" transform="translate(637.524 -18.904)"/>
                        <path id="prefix__Path_7471" d="M892.495 694.178a7.233 7.233 0 0 0-3.116-1.921 5.366 5.366 0 0 0-4.329.873 5.614 5.614 0 0 0-2.6 3.667 5.421 5.421 0 0 0 1.385 5.065 5.608 5.608 0 0 0 3.117 1.746 5.732 5.732 0 0 0 5.54-9.431z" class="prefix__cls-6" data-name="Path 7471" transform="translate(461.913 -5.946)"/>
                        <path id="prefix__Path_7472" d="M641.393 662.546a6.642 6.642 0 0 0-3.809-2.271 6.862 6.862 0 0 0-8.311 5.414 6.947 6.947 0 0 0 1.558 6.113 6.642 6.642 0 0 0 3.809 2.27 7.055 7.055 0 0 0 6.752-11.527z" class="prefix__cls-6" data-name="Path 7472" transform="translate(276.698 -29.85)"/>
                        <path id="prefix__Path_7473" d="M512.013 731.8a5.609 5.609 0 0 0-3.116-1.746 5.5 5.5 0 0 0-4.329.873 5.381 5.381 0 0 0-2.424 3.668 6.059 6.059 0 0 0 1.385 5.065 5.609 5.609 0 0 0 3.117 1.747 5.5 5.5 0 0 0 4.328-.873 6.024 6.024 0 0 0 2.424-3.667 5.757 5.757 0 0 0-1.385-5.067z" class="prefix__cls-6" data-name="Path 7473" transform="translate(183.764 22.27)"/>
                        <path id="prefix__Path_7474" d="M524.514 552.1a5.609 5.609 0 0 0-3.116-1.746 5.5 5.5 0 0 0-4.329.873 5.38 5.38 0 0 0-2.424 3.668 6.6 6.6 0 0 0 1.212 5.065 5.608 5.608 0 0 0 3.117 1.747 5.5 5.5 0 0 0 4.329-.873 5.382 5.382 0 0 0 2.424-3.667 5.452 5.452 0 0 0-1.213-5.067z" class="prefix__cls-6" data-name="Path 7474" transform="translate(192.906 -111.867)"/>
                        <path id="prefix__Path_7475" d="M289.446 618.456a4.278 4.278 0 0 0-2.424-1.4 4.118 4.118 0 0 0-3.463.7 4.344 4.344 0 0 0-1.9 2.794 4.285 4.285 0 0 0 1.039 4.017 4.923 4.923 0 0 0 2.424 1.4 4.537 4.537 0 0 0 5.367-3.493 4.171 4.171 0 0 0-1.043-4.018z" class="prefix__cls-6" data-name="Path 7475" transform="translate(22.476 -62.08)"/>
                        <path id="prefix__Path_7476" d="M969.493 619.146a7.727 7.727 0 0 0-3.809-2.27 7.055 7.055 0 0 0-6.753 11.526 7.731 7.731 0 0 0 3.809 2.27 6.93 6.93 0 0 0 5.194-1.048 7.9 7.9 0 0 0 3.116-4.366 6.708 6.708 0 0 0-1.557-6.112z" class="prefix__cls-6" data-name="Path 7476" transform="translate(516.676 -62.246)"/>
                    </g>
                    <g id="prefix__Group_4014" data-name="Group 4014" transform="translate(1462.873 434.342)">
                        <path id="prefix__Path_7477" d="M197.755 551.426a13.733 13.733 0 0 1-18.355-20.433 13.577 13.577 0 0 1 19.219 1.048 13.4 13.4 0 0 1-.864 19.385zm-.346-.349a13.242 13.242 0 0 0-17.66-19.735 13.242 13.242 0 0 0 17.66 19.735z" class="prefix__cls-6" data-name="Path 7477" transform="translate(-174.9 -257.499)"/>
                        <path id="prefix__Path_7478" d="M469.855 649.726a13.733 13.733 0 1 1 1.039-19.385 13.786 13.786 0 0 1-1.039 19.385zm-.346-.349a13.242 13.242 0 1 0-18.7-1.048 13.333 13.333 0 0 0 18.699 1.048z" class="prefix__cls-6" data-name="Path 7478" transform="translate(24.118 -184.123)"/>
                        <path id="prefix__Path_7479" d="M710.555 767.726a13.733 13.733 0 1 1 1.039-19.385 13.778 13.778 0 0 1-1.039 19.385zm-.346-.349a13.242 13.242 0 1 0-18.7-1.048 13.333 13.333 0 0 0 18.699 1.048z" class="prefix__cls-6" data-name="Path 7479" transform="translate(200.17 -96.041)"/>
                        <path id="prefix__Path_7480" d="M873.155 637.326a13.733 13.733 0 1 1 1.039-19.385 13.787 13.787 0 0 1-1.039 19.385zm-.346-.349a13.242 13.242 0 1 0-18.7-1.048 13.1 13.1 0 0 0 18.699 1.048z" class="prefix__cls-6" data-name="Path 7480" transform="translate(319.098 -193.379)"/>
                        <path id="prefix__Path_7481" d="M778.381 396.826a13.569 13.569 0 0 1-19.219-1.048 13.863 13.863 0 0 1 1.039-19.386 13.675 13.675 0 0 1 18.18 20.433zm-.346-.349a13.242 13.242 0 1 0-18.7-1.048 13.119 13.119 0 0 0 18.7 1.048z" class="prefix__cls-7" data-name="Path 7481" transform="translate(249.906 -372.9)"/>
                        <path id="prefix__Path_7482" d="M1048.854 783.826a13.733 13.733 0 1 1 1.039-19.386 13.786 13.786 0 0 1-1.039 19.386zm-.346-.349a13.242 13.242 0 1 0-18.7-1.048 13.333 13.333 0 0 0 18.7 1.048z" class="prefix__cls-6" data-name="Path 7482" transform="translate(447.608 -84.024)"/>
                        <path id="prefix__Path_7483" d="M994.854 549.026a13.733 13.733 0 0 1-18.354-20.433 13.569 13.569 0 0 1 19.219 1.048 13.4 13.4 0 0 1-.865 19.385zm-.173-.349a13.242 13.242 0 1 0-18.7-1.048 13.333 13.333 0 0 0 18.7 1.048z" class="prefix__cls-6" data-name="Path 7483" transform="translate(408.111 -259.29)"/>
                        <path id="prefix__Path_7484" d="M1136.281 492.726a13.569 13.569 0 0 1-19.219-1.048 13.727 13.727 0 1 1 19.219 1.048zm-.346-.349a13.242 13.242 0 1 0-18.7-1.048 13.333 13.333 0 0 0 18.7 1.048z" class="prefix__cls-6" data-name="Path 7484" transform="translate(511.68 -301.315)"/>
                    </g>
                </g>
                <g id="prefix__Group_4018" data-name="Group 4018" transform="translate(1683.109 119.981)">
                    <path id="prefix__Path_7485" d="M981.713 880.276l1.039-.524 299.362 208.876-.52.873.866-.7 218.851-28.467-52.635 122.252h.519l.693-.524 152.365-134.651.866.175.866-.175-1.558-.7-55.927-90.29 32.377-75.447.346-.175-.173-.175-27.356-183.377.173-.175 94.708-167.659 181.279 22.7L2027.66 745.27l.346.349 12.813-187.394 95.747 47.154v.175h.346v-.175l147.863-42.439 38.437 161.9h.173l284.125 52.219v.175l.346-.175.346.175v-.349l390.607-165.738 159.637 322.744h.173L3407.6 968.3l-2.251 186.346.52 1.921v-.873l94.882-172.9 215.388 33.183 49.345 123.125.173.7-37.917 132.381v.7h.174l182.144-27.419v.174h.174l171.064 249.044-.174-1.048-54.02-352.958h-.173l-145.958-58.681-19.911-109.852 51.6-184.949L4084.928 685.9l-.346-.175-188.382-93.09-21.3-81.908v-.349l-.346.175-270.447-64.444.173-.349-.347.175 17.314-300.39h-.173L3397.037 68.7l.173.349-77.048 92.038L3283.63 94.9l-.173.349L3151 362.977l-304.9-259.523.346-1.223-.692 1.048L2585.7 230.247v.175l19.046 240.137-234.434 67.413-139.383-204.51-.173-.7-56.271 163.118-124.835-64.617-125.874 68.461L1720.162 399.3l-.173-.175-.173.349-148.382 119.985-179.894-22.529-.866-1.048.519 1.223-130.548 130.285-125.7-256.2-.173-.873-.173.873-57.483 192.459L976 528.366l.693.7 85.186 85.576L982.926 879.4zm246.38-98.675l175.046 124-120.506 182.155zm373.466 265.286l-99.383 12.924 27.53-64.095 71.854 51h-.693zm-72.027-51.87l-56.27-39.817 50.211-35.1 22.681 36.5zm-56.444-40.168l-69.256-49.075 57.31-86.624 62.331 100.6zm-22.854-231.055l100.941-26.2-89.86 120.33zm-11.427-97.277l-46.921-128.189 80.857 100.77zm34.109-27.07l77.74 96.753-111.676-69.334zm77.394 97.1L1444 671.225l-5.194-44.011zm.346.7l-100.6 26.022-6.06-51.52zm-89.86 121.2l-.173.175-57.31 86.8-175.046-124.17 221.275-57.458zm-57.31 87.672l69.083 49.075-189.244 132.556zM1283.5 1088.278l189.59-132.9 56.444 39.994-27.7 64.444zm166.389 93.086L1502 1060.16l99.729-12.924zm151.845-135.35l-71.68-50.822 16.448-38.247zM1546.5 955.9l-22.508-36.152 54.539-38.247zm-22.855-36.675l-61.984-100.075 116.87 61.65zm55.059-38.771l-117.39-62 90.207-120.68zm462.288-322.569l8.657-125.57 86.744 172.724zm241.879-5.239l12.986 6.811-10.735 3.144zm40.861 171.851L2285.3 562.945l11.081-3.144 135.916 70.382 174.7 146.527zm283.952 52.044l-174.7-146.527 172.8-33.183zm-1.384-179.889l53.5-10.3-51.6 188.966zm292.263-106.708L2966.088 546l-230.8 25.673zM2734.425 571.5l43.458-181.8 120.333 99.9zm164.657-81.909l47.96-23.926 19.219 79.813zm48.307-24.1l52.288-26.2 113.234 122.775-146.3-16.242zm-.173-.524l-27.01-111.767 79.125 85.751zm-.346.349l-48.306 24.1-120.68-100.242 9.7-40.692 131.934 4.191zm-169.332-76.495l-51.077-42.439 60.772 1.921zm-.173.524l-43.112 180.932-8.138-223.546zm-43.46 182.155l-57.31-44.709 49-179.011zm-57.656-45.059l-70.988-55.537 120.16-123.823zm.173.7l57.137 44.709-73.066 13.972zm57.137 45.058l-125.008 203.289 51.769-189.141zm-125.008 204.337l125.7-204.335.173.175v-.349l232.183-25.847 32.031 64.619zm358.576-230.182l145.612 16.067-113.754 48.379zm32.031 64.793l114.273-48.547 44.671 369.9zm114.793-48.2l145.093 115.44-100.249 254.806zm616.73 271.573l-3.982 50.3-126.047-81.559zm-130.9-31.96l142.5-111.6-11.6 143.209zm127.259 83.131l42.766 27.594-53.154 101.469zm0-.524l4.155-50.472 70.815 17.115-32.031 61.126zm4.156-51l11.6-143.558 90.033 15.893-30.646 144.781zm102.153-127.491l96.44 16.941-126.908 127.318zm-.346-.524l-89.86-15.893 93.15-126.967 24.413 12.05zm-89.861-16.766L3778.814 535l56.964 28.118zm-.52.349l-71.68-126.094L3778.469 535zm-.519.175l-223.173-85.748 151.5-40.518zm0 .524L3599.44 802.209l-81.9-196.65.692-1.223zm-442.371-114.565l105.963 218.481-146.131-116.313zm-40.515 101.993L3114.47 562.771l184.915 13.1zm40.861-102.167l217.122 28.467-.52.873v.175l.173.349L3406.214 794.7zm217.122 28.117l-216.6-28.467 105.1-44.709zm-110.983-73.351l70.468-29.864 41.034 103.041zm.346 264.936l192.187 7.51-190.629 165.04zm.173-.524l110.634-188.965 81.723 196.3zm70.3-294.626l126.22-53.791-85.366 156.483zm-.173-.349l-78.78-197.7 205.346 143.908zM3397.9 301.5l91.592-63.92 113.581 207.828zm78.434 198.571l-70.642 30.039-149.768-98.151 141.457-129.936zm-71.161 30.214l-105.443 44.884-78.26-111.6 34.109-31.261zM3221.3 463.049l-69.258-98.849 103.192 67.762zm77.914 112.122l-185.088-13.1 107-98.325zM3259.39 678.56l146.478 116.663-246.727 138.145zm147.863 289.561l-248.112-34.405 246.9-138.319 1.558 172.375zm-1.385 186.7L3407.945 969l.52-.174 91.765 14.146zm94.532-172.378l-92.108-14.143L3598.4 803.781zm.52 0l98.344-179.36 116.524 212.543zm99.037-179.186l126.566 82.083-10.559 129.76zm170.2 110.376l90.379 58.506-46.749 82.782-97.132-39.121zm17.833 186.7L3717 1016.5l96.439 38.771zm.173.873l120.853 142.685-142.5-104.263zm-71.161-84l70.814 83.655-21.643 38.422zm11.254 255.157l37.918-132.206 143.534 104.962zm352.169 220.227l-169.159-246.424.52.349-1.039-1.4 116-103.914zm-54.02-351.735l-115.83 103.905-29.434-162.42zm-116.351 103.565l-121.544-143.733 25.625-45.233 66.659 26.721zm-29.607-162.769l-66.313-26.721 46.575-82.432zm-19.737-110.026l-90.38-58.506 32.2-61.3 109.6-64.444zm51.6-184.949l-108.39 63.735 125.874-126.268zm.52-.349l17.487-62.7 152.538-37.374zm170.89-100.6l-153.4 37.549-33.936-130.111zm-153.926 37.543l-96.44-17.115 27.7-130.635 34.8 17.115zm-34.109-131.159L3861.23 575l13.505-63.571zm-34.974-17.29l-24.24-12.051 37.745-51.346zm-24.587-12.051l-56.791-28.118 94.708-23.577zm37.4-52.219l-95.055 23.749-172.969-87.5zm-95.574 23.926L3670.6 563.12l-66.14-116.488zm-107.867 28.816l-151.845 40.518-.173-.349 85.531-157.006zM3603.6 445.235l-113.581-208 130.895-91.339zm16.967-299.691l-130.9 91.339-91.591-167.659zm-223.006-76.32l91.765 167.834-91.765 63.92-77.048-139.716zM3283.8 95.77l36.187 65.492-167.772 200.318zm36.36 66.016l77.048 139.541-245.342 61.65zm76.529 140.065l-141.11 129.761L3151.7 363.5zm-245.515 62.174l69.776 99.548-106.825 98.327zM3113.605 561.9l-113.234-122.778 150.459-75.272zm37.052-198.571l-150.806 75.447-79.818-86.449-73.758-248.171zm-304.729-259l73.759 247.821-131.76-4.191zm-58.695 243.63l-61.465-1.921-.346-.349v.349L2606.3 468.986l238.936-364.135zM2586.043 230.6l259.193-126.618-240.148 366.052zm19.045 240.661l70.988 55.537-16.1 59.03-53.674 10.3zm.866 125.046l-172.622 33.183 171.237-158.228zm-2.078-125.046l-171.41 158.228-62.158-91.165zm-172.1 158.054l-134.7-69.858 72.893-20.957zm-61.985-91.165l-73.241 20.95-13.851-7.16-51.77-217.258zm-139.208-203.64l51.769 217.433-107.521-55.712zm-55.925 162.07l107.694 55.886 2.424 10.3-147.516 42.444zm-.52-.175l-37.4 108.455L2050 432.136zm-125.008-64.444l-8.657 125.744-116.524-57.458zm-8.657 126.268l-12.812 186.521-199.113-192.633 94.882-51.695zm-117.563-57.981l-94.535 51.52-107.867-151.417zm-203.095-100.072l108.041 151.592-180.933-22.7zm-.866.349L1646.4 528.89l-74.624-9.431zM1571.26 519.983l74.97 9.431L1551.7 696.9l-78.26-97.627zm-.52-.175l-97.652 78.94-81.376-101.469zm-179.721-22.18l47.441 129.412 5.194 44.185-182.838-43.661zm-130.548 130.46l183.184 43.661 6.06 51.695-221.621 57.456zm-32.724 151.941l-23.2-101.643 55.232-50.123zm-64.409-63.92l41.034-37.2 23.2 101.643zm64.063 64.968l-243.437 97.8 179.028-162.42zm-40-178.487l72.373 25.149-55.232 50.123zm72.373 24.8l-72.546-25.323-52.116-228.96zm-125.35-255.332l52.289 229.833-109.6-38.073zm-57.31 192.11l109.772 38.247 17.314 75.971-41.208 37.374-100.768-101.294zm-99.729-34.58l99.21 34.58-14.89 50.123zm84.493 85.4l100.6 101.12L983.1 878.878zm165.7 166.437l54.54 306.5-298.846-208.348z" class="prefix__cls-11" data-name="Path 7485" transform="translate(-969.247 -68.7)"/>
                    <g id="prefix__Group_4016" data-name="Group 4016" transform="translate(2.813 295.368)">
                        <path id="prefix__Path_7486" d="M1119.131 484.377a7.728 7.728 0 0 0 3.809 2.27 7.2 7.2 0 0 0 5.367-1.048 7.736 7.736 0 0 0 3.117-4.541 6.554 6.554 0 0 0-1.731-6.113 7.73 7.73 0 0 0-3.809-2.27 6.862 6.862 0 0 0-8.311 5.414 7.167 7.167 0 0 0 1.558 6.288z" class="prefix__cls-12" data-name="Path 7486" transform="translate(-868.638 -62.653)"/>
                        <path id="prefix__Path_7487" d="M1322.142 541.383a7.728 7.728 0 0 0 3.809 2.27 6.943 6.943 0 0 0 8.311-5.414 6.553 6.553 0 0 0-1.732-6.113 7.73 7.73 0 0 0-3.809-2.27 7.361 7.361 0 0 0-5.367 1.048 7.735 7.735 0 0 0-3.117 4.541 7.275 7.275 0 0 0 1.905 5.938z" class="prefix__cls-6" data-name="Path 7487" transform="translate(-720.345 -19.936)"/>
                        <path id="prefix__Path_7488" d="M1247.041 714.057a7.73 7.73 0 0 0 3.809 2.27 7.361 7.361 0 0 0 5.367-1.048 7.737 7.737 0 0 0 3.116-4.541 6.555 6.555 0 0 0-1.731-6.113 7.731 7.731 0 0 0-3.809-2.27 6.779 6.779 0 0 0-5.194 1.048 7.737 7.737 0 0 0-3.116 4.541 6.591 6.591 0 0 0 1.558 6.113z" class="prefix__cls-6" data-name="Path 7488" transform="translate(-775.1 108.827)"/>
                        <path id="prefix__Path_7489" d="M1151.3 658.74a5.583 5.583 0 0 0 2.943 1.747 5.771 5.771 0 0 0 4.155-.7 5.638 5.638 0 0 0 2.424-3.493 6.191 6.191 0 0 0-1.212-4.89 5.582 5.582 0 0 0-2.943-1.747 5.772 5.772 0 0 0-4.156.7 6.155 6.155 0 0 0-2.424 3.493 5.124 5.124 0 0 0 1.213 4.89z" class="prefix__cls-6" data-name="Path 7489" transform="translate(-844.879 69.486)"/>
                        <path id="prefix__Path_7490" d="M977.641 540.757a7.728 7.728 0 0 0 3.809 2.27 7.359 7.359 0 0 0 5.367-1.048 7.734 7.734 0 0 0 3.116-4.541 7.086 7.086 0 0 0-1.558-6.113 7.73 7.73 0 0 0-3.809-2.27 7.2 7.2 0 0 0-5.366 1.045 7.9 7.9 0 0 0-3.116 4.366 6.929 6.929 0 0 0 1.557 6.291z" class="prefix__cls-12" data-name="Path 7490" transform="translate(-972.143 -20.533)"/>
                        <path id="prefix__Path_7491" d="M1065.169 249.657a6.642 6.642 0 0 0 3.809 2.27 7.361 7.361 0 0 0 5.367-1.048 6.82 6.82 0 0 0 2.943-4.541 6.554 6.554 0 0 0-1.731-6.113 7.73 7.73 0 0 0-3.809-2.27 6.778 6.778 0 0 0-5.194 1.048 7.9 7.9 0 0 0-3.117 4.366 8.178 8.178 0 0 0 1.732 6.288z" class="prefix__cls-7" data-name="Path 7491" transform="translate(-908.172 -237.825)"/>
                        <path id="prefix__Path_7492" d="M1335.5 636.577a7.731 7.731 0 0 0 3.809 2.27 7.361 7.361 0 0 0 5.367-1.048 7.738 7.738 0 0 0 3.117-4.541 6.947 6.947 0 0 0-1.558-6.112 7.728 7.728 0 0 0-3.809-2.27 6.862 6.862 0 0 0-8.311 5.414 6.743 6.743 0 0 0 1.385 6.287z" class="prefix__cls-7" data-name="Path 7492" transform="translate(-710.329 50.957)"/>
                        <path id="prefix__Path_7493" d="M1253.7 506.272a7.357 7.357 0 0 0 3.982 2.445 8.266 8.266 0 0 0 5.714-1.048 7.044 7.044 0 0 0 3.29-4.716 7.578 7.578 0 0 0-1.731-6.636 7.356 7.356 0 0 0-3.982-2.445 7.637 7.637 0 0 0-9 5.938 7.363 7.363 0 0 0 1.727 6.462z" class="prefix__cls-6" data-name="Path 7493" transform="translate(-770.336 -46.824)"/>
                        <path id="prefix__Path_7494" d="M1240.975 396.152a6.4 6.4 0 0 0 3.809 2.1 6.626 6.626 0 0 0 5.194-1.048 7.735 7.735 0 0 0 3.117-4.541 6.554 6.554 0 0 0-1.731-6.113 7.73 7.73 0 0 0-3.809-2.27 6.943 6.943 0 0 0-8.311 5.414 7.6 7.6 0 0 0 1.731 6.458z" class="prefix__cls-7" data-name="Path 7494" transform="translate(-779.596 -128.639)"/>
                        <path id="prefix__Path_7495" d="M1306.866 434.216a4.49 4.49 0 0 0 2.77 1.572 5.146 5.146 0 0 0 6.06-4.017 4.913 4.913 0 0 0-1.212-4.541 4.49 4.49 0 0 0-2.77-1.572 4.775 4.775 0 0 0-3.809.7 5.041 5.041 0 0 0-2.251 3.318 4.794 4.794 0 0 0 1.212 4.54z" class="prefix__cls-6" data-name="Path 7495" transform="translate(-731.04 -97.719)"/>
                        <path id="prefix__Path_7496" d="M974.894 337.253a4.926 4.926 0 0 0 2.424 1.4 4.839 4.839 0 0 0 3.463-.7 4.343 4.343 0 0 0 1.9-2.794 4.4 4.4 0 0 0-1.039-4.017 4.926 4.926 0 0 0-2.424-1.4 4.537 4.537 0 0 0-5.367 3.493 4.284 4.284 0 0 0 1.043 4.018z" class="prefix__cls-7" data-name="Path 7496" transform="translate(-973.725 -169.288)"/>
                        <path id="prefix__Path_7497" d="M1213.83 320.388a7.236 7.236 0 0 0 3.117 1.921 5.367 5.367 0 0 0 4.329-.873 5.614 5.614 0 0 0 2.6-3.668 5.907 5.907 0 0 0-1.385-5.065 5.609 5.609 0 0 0-3.116-1.746 5.884 5.884 0 0 0-6.926 4.541 6 6 0 0 0 1.381 4.89z" class="prefix__cls-6" data-name="Path 7497" transform="translate(-799.199 -183.336)"/>
                        <path id="prefix__Path_7498" d="M1137.831 396.483a7.728 7.728 0 0 0 3.809 2.27 7.055 7.055 0 0 0 6.753-11.527 7.729 7.729 0 0 0-3.809-2.27 7.36 7.36 0 0 0-5.367 1.048 6.884 6.884 0 0 0-2.944 4.366 7.227 7.227 0 0 0 1.558 6.113z" class="prefix__cls-6" data-name="Path 7498" transform="translate(-854.961 -128.097)"/>
                    </g>
                    <g id="prefix__Group_4017" data-name="Group 4017" transform="translate(0 288.688)">
                        <path id="prefix__Path_7499" d="M1402.4 253.593a13.733 13.733 0 1 1-1.039 19.386 13.778 13.778 0 0 1 1.039-19.386zm.346.349a13.242 13.242 0 1 0 18.7 1.048 13.333 13.333 0 0 0-18.698-1.048z" class="prefix__cls-6" data-name="Path 7499" transform="translate(-660.663 -221.982)"/>
                        <path id="prefix__Path_7500" d="M1239.956 383.993a13.733 13.733 0 1 1-1.039 19.386 13.534 13.534 0 0 1 1.039-19.386zm.173.175a13.242 13.242 0 1 0 18.7 1.048 13.333 13.333 0 0 0-18.7-1.048z" class="prefix__cls-6" data-name="Path 7500" transform="translate(-779.573 -124.645)"/>
                        <path id="prefix__Path_7501" d="M1334.5 624.493a13.569 13.569 0 0 1 19.219 1.048 13.863 13.863 0 0 1-1.039 19.385 13.56 13.56 0 0 1-19.219-1.048 13.854 13.854 0 0 1 1.039-19.385zm.346.349a13.242 13.242 0 1 0 18.7 1.048 13.111 13.111 0 0 0-18.698-1.048z" class="prefix__cls-6" data-name="Path 7501" transform="translate(-710.326 54.876)"/>
                        <path id="prefix__Path_7502" d="M1064.1 237.493a13.733 13.733 0 1 1-1.039 19.386 13.786 13.786 0 0 1 1.039-19.386zm.346.349a13.242 13.242 0 1 0 18.7 1.048 13.333 13.333 0 0 0-18.698-1.048z" class="prefix__cls-6" data-name="Path 7502" transform="translate(-908.101 -234)"/>
                        <path id="prefix__Path_7503" d="M1118.127 472.293a13.733 13.733 0 1 1-1.039 19.386 13.778 13.778 0 0 1 1.039-19.386zm.346.349a13.242 13.242 0 1 0 18.7 1.048 13.333 13.333 0 0 0-18.7-1.048z" class="prefix__cls-6" data-name="Path 7503" transform="translate(-868.63 -58.733)"/>
                        <path id="prefix__Path_7504" d="M976.6 528.593a13.733 13.733 0 1 1-1.039 19.385 13.787 13.787 0 0 1 1.039-19.385zm.346.349a13.242 13.242 0 1 0 18.7 1.048 13.333 13.333 0 0 0-18.698-1.048z" class="prefix__cls-6" data-name="Path 7504" transform="translate(-972.1 -16.708)"/>
                    </g>
                </g>
            </g>
        </g>
    </g>
</svg>
